<svg width="508" height="309" xmlns="http://www.w3.org/2000/svg">
 <!-- Created with Method Draw - http://github.com/duopixel/Method-Draw/ -->

 <g>
  <title>background</title>
  <rect fill="#000000" id="canvas_background" height="311" width="510" y="-1" x="-1"/>
  <g display="none" overflow="visible" y="0" x="0" height="100%" width="100%" id="canvasGrid">
   <rect fill="url(#gridpattern)" stroke-width="0" height="400" width="580"/>
  </g>
 </g>
 <g>
  <title>Layer 1</title>
  <style transform="matrix(0.07111111852857821,0,0,0.07111111852857821,0,0) " type="text/css">.Arched_x0020_Green{fill:url(#SVGID_1_);stroke:#FFFFFF;stroke-width:0.25;stroke-miterlimit:1;}
	.st0{fill:#4E2817;}
	.st1{fill:#F26922;}
	.st2{fill-rule:evenodd;clip-rule:evenodd;fill:#4E2817;}</style>
  <linearGradient y2="249.2929" x2="250.7071" y1="250" x1="250" gradientUnits="userSpaceOnUse" id="svg_5">
   <stop stop-color="#1EAB4B" offset="0"/>
   <stop stop-color="#19361A" offset="0.9831"/>
  </linearGradient>
  <g stroke="null" id="svg_19">
   <path stroke="null" id="svg_7" d="m23.368433,295.26785c-8.621622,0 -16.237388,-1.005856 -23.134686,-7.75946l8.909009,-8.909009c4.454505,4.454505 10.345946,5.172973 14.513064,5.172973c4.741892,0 9.627478,-1.580631 9.627478,-5.604054c0,-2.73018 -1.436937,-4.598198 -5.747748,-5.02928l-8.621622,-0.862162c-9.771172,-1.005856 -15.806307,-5.172973 -15.806307,-15.231532c0,-11.208109 9.914865,-17.386938 20.97928,-17.386938c8.477928,0 15.51892,1.436937 20.835587,6.322523l-8.334235,8.477928c-3.161261,-2.873874 -7.903154,-3.592343 -12.645046,-3.592343c-5.460361,0 -7.75946,2.442793 -7.75946,5.172973c0,2.011712 0.862162,4.310811 5.604054,4.741892l8.621622,0.862162c10.777028,1.005856 16.237388,6.753604 16.237388,15.950001c-0.287387,11.926577 -10.48964,17.674325 -23.278379,17.674325z" class="st0"/>
   <path stroke="null" id="svg_8" d="m70.068886,294.693075c-11.064415,0 -15.806307,-7.75946 -15.806307,-15.51892l0,-26.870722l-5.747748,0l0,-10.48964l5.747748,0l0,-16.093694l13.507208,0l0,16.093694l9.627478,0l0,10.345946l-9.627478,0l0,26.152253c0,3.161261 1.436937,4.885586 4.741892,4.885586l4.885586,0l0,11.495496l-7.328379,0z" class="st0"/>
   <path stroke="null" id="svg_9" d="m83.4324,231.036766l0,-11.064415l13.938289,0l0,11.064415l-13.938289,0zm0.287387,63.656309l0,-54.316219l13.507208,0l0,54.316219l-13.507208,0z" class="st0"/>
   <path stroke="null" id="svg_10" d="m127.977447,295.26785c-10.920721,0 -24.284235,-5.891442 -24.284235,-27.876578c0,-21.985136 13.507208,-27.732884 24.284235,-27.732884c7.472072,0 13.21982,2.299099 17.961713,7.328379l-9.196397,9.196397c-2.873874,-3.017568 -5.172973,-4.310811 -8.765316,-4.310811c-3.304955,0 -5.747748,1.14955 -7.75946,3.592343c-2.155406,2.586487 -3.017568,6.322523 -3.017568,12.070271c0,5.747748 1.005856,9.483784 3.017568,12.070271c2.011712,2.442793 4.454505,3.592343 7.75946,3.592343c3.592343,0 5.891442,-1.293243 8.765316,-4.310811l9.196397,9.052703c-4.885586,5.02928 -10.48964,7.328379 -17.961713,7.328379z" class="st0"/>
   <path stroke="null" id="svg_11" d="m183.299522,294.693075l-13.363514,-22.703605l-5.747748,6.466217l0,16.237388l-13.507208,0l0,-74.289643l13.507208,0l0,42.102254l18.105406,-22.272524l16.381082,0l-19.39865,21.985136l20.835587,32.474776l-16.812163,0z" class="st0"/>
   <path stroke="null" id="svg_12" d="m211.463487,271.702083c0,7.040991 4.310811,12.070271 11.926577,12.070271c5.891442,0 8.909009,-1.724324 12.357658,-5.172973l8.190541,8.046847c-5.460361,5.460361 -10.920721,8.621622 -20.691893,8.621622c-12.788739,0 -25.146398,-5.891442 -25.146398,-27.876578c0,-17.674325 9.627478,-27.732884 23.709461,-27.732884c15.087839,0 23.709461,11.064415 23.709461,26.00856l0,6.035135l-34.055407,0zm19.39865,-15.087839c-1.436937,-3.304955 -4.454505,-5.604054 -9.052703,-5.604054c-4.598198,0 -7.615766,2.442793 -9.052703,5.604054c-0.862162,2.011712 -1.14955,3.448649 -1.293243,5.891442l20.691893,0c-0.143694,-2.442793 -0.431081,-3.87973 -1.293243,-5.891442z" class="st0"/>
   <path stroke="null" id="svg_13" d="m281.442319,255.177307c-2.155406,-2.155406 -3.87973,-3.304955 -7.184685,-3.304955c-4.167117,0 -8.765316,3.161261 -8.765316,10.058559l0,32.762164l-13.507208,0l0,-54.316219l13.21982,0l0,5.172973c2.586487,-3.161261 7.903154,-5.891442 13.650902,-5.891442c5.316667,0 9.052703,1.293243 12.788739,5.172973l-10.202253,10.345946z" class="st0"/>
   <path stroke="null" id="svg_14" d="m352.714395,239.658388c-6.753604,0 -11.63919,2.155406 -16.237388,6.897298c-3.448649,-4.741892 -8.334235,-6.897298 -14.36937,-6.897298c-5.02928,0 -10.058559,2.011712 -13.507208,5.604054l0,-4.885586l-13.21982,0l0,54.316219l13.507208,0l0,-32.905857c0,-7.472072 4.741892,-9.914865 9.052703,-9.914865c4.310811,0 8.909009,2.442793 8.909009,9.914865l0,32.905857l13.507208,0l0,-33.193245c0,-7.040991 4.885586,-9.627478 9.052703,-9.627478c4.310811,0 8.909009,2.442793 8.909009,9.914865l0,32.905857l13.507208,0l0,-34.773876c0,-5.891442 -1.580631,-11.064415 -5.891442,-15.51892c-2.873874,-2.873874 -7.75946,-4.741892 -13.21982,-4.741892z" class="st1"/>
   <path stroke="null" id="svg_15" d="m411.628812,273.13902c0,7.472072 -4.741892,9.914865 -9.052703,9.914865c-4.310811,0 -8.909009,-2.442793 -8.909009,-9.914865l0,-32.762164l-13.507208,0l0,34.773876c0,5.891442 1.14955,11.064415 5.460361,15.375226c3.017568,3.017568 7.472072,4.741892 12.788739,4.741892c5.02928,0 10.058559,-1.868018 13.507208,-5.604054l0,5.02928l13.21982,0l0,-54.316219l-13.507208,0l0,32.762164z" class="st1"/>
   <path stroke="null" id="svg_16" d="m447.408543,278.311993l0,-57.908561l-13.507208,0l0,58.770723c0,7.75946 4.741892,15.51892 15.806307,15.51892l7.75946,0l0,-11.495496l-5.172973,0c-3.448649,0 -4.885586,-1.580631 -4.885586,-4.885586z" class="st1"/>
   <path stroke="null" id="svg_17" d="m507.328816,265.666947c0,-14.944145 -8.621622,-26.00856 -23.709461,-26.00856c-14.081983,0 -23.709461,10.058559 -23.709461,27.732884c0,21.985136 12.357658,27.876578 25.146398,27.876578c9.771172,0 15.087839,-3.017568 20.691893,-8.621622l-8.190541,-8.046847c-3.448649,3.448649 -6.322523,5.172973 -12.357658,5.172973c-7.615766,0 -11.926577,-5.172973 -11.926577,-12.070271l34.055407,0l0,-6.035135zm-34.055407,-3.161261c0.143694,-2.442793 0.431081,-3.87973 1.293243,-5.891442c1.436937,-3.304955 4.454505,-5.604054 9.052703,-5.604054c4.598198,0 7.615766,2.442793 9.052703,5.604054c0.862162,2.011712 1.14955,3.448649 1.293243,5.891442l-20.691893,0z" class="st1"/>
   <path stroke="null" id="svg_18" d="m278.855833,204.453431c-1.868018,0.862162 -4.454505,0.718469 -7.184685,0.862162c-2.299099,0 -5.604054,0.143694 -6.897298,-1.14955c-0.718469,-0.718469 -1.005856,-2.011712 -1.005856,-2.873874c0,-1.005856 0.143694,-2.155406 0.431081,-3.304955c0.287387,-1.293243 0.574775,-3.017568 0,-3.592343c-0.574775,-0.862162 -2.73018,-0.431081 -3.736036,-1.14955c-1.14955,-0.718469 -1.436937,-2.155406 -1.868018,-4.023424c-0.143694,-0.574775 -0.431081,-1.005856 -0.574775,-1.436937c-0.287387,-2.73018 0.574775,-6.322523 1.14955,-9.052703c0.718469,-2.873874 1.436937,-5.604054 2.011712,-8.334235c0.718469,-4.023424 1.005856,-8.621622 0.718469,-12.932433c-0.143694,-2.155406 -0.431081,-3.87973 -0.143694,-5.747748c0.287387,-1.724324 1.005856,-3.161261 1.436937,-4.885586c0.143694,-0.574775 0,-1.14955 0.143694,-1.724324c0,-0.574775 0.431081,-1.005856 0.431081,-1.436937c0,-1.14955 -0.287387,-2.586487 -0.431081,-4.023424c-0.287387,-3.87973 0,-9.196397 0.287387,-12.501352c0.143694,-1.14955 0.574775,-2.442793 -0.143694,-3.017568c-4.023424,0 -7.615766,0.718469 -11.351802,1.14955c-9.914865,1.293243 -22.416217,1.436937 -32.043695,-0.431081c-0.862162,-0.143694 -1.868018,-0.143694 -2.73018,-0.431081c-6.753604,-1.580631 -13.076127,-4.454505 -17.961713,-8.334235c-0.718469,-0.574775 -1.580631,-1.293243 -2.442793,-1.868018c-0.862162,-0.574775 -1.724324,-1.580631 -2.442793,-1.868018c-3.87973,-1.868018 -9.052703,0.287387 -10.633334,2.73018c-0.574775,1.005856 -1.14955,2.299099 -1.724324,3.448649c-0.574775,1.14955 -1.14955,2.299099 -1.580631,3.448649c-2.586487,5.891442 -5.460361,11.495496 -8.046847,17.386938c-1.436937,3.448649 -3.161261,7.184685 -4.310811,10.920721c-2.299099,8.046847 -0.143694,18.967568 1.724324,26.583335c0.143694,0.718469 0.574775,1.436937 0.862162,2.155406c0.574775,1.868018 1.868018,4.310811 3.304955,5.604054c0.718469,0.718469 2.011712,1.005856 2.873874,1.724324c1.005856,0.862162 1.868018,2.73018 2.73018,4.310811c0.287387,0.574775 0.862162,1.436937 1.293243,2.155406c1.005856,1.724324 1.293243,3.304955 -0.574775,4.310811c-1.436937,0.718469 -3.592343,1.005856 -5.604054,1.14955c-0.862162,0.287387 -0.574775,1.436937 -1.14955,2.011712c-0.287387,0.287387 -1.724324,0.862162 -2.442793,1.14955c-2.586487,0.718469 -7.184685,0.718469 -9.196397,0c-1.005856,-0.431081 -2.155406,-1.14955 -2.442793,-2.011712c-0.574775,-1.580631 0.718469,-3.736036 -0.431081,-4.885586c-0.574775,-0.574775 -1.580631,-0.431081 -2.586487,-0.862162c-1.436937,-0.574775 -2.73018,-1.868018 -3.304955,-3.592343c-1.580631,-4.023424 -0.574775,-10.202253 -0.718469,-15.087839c0,-1.436937 -0.287387,-3.017568 -0.287387,-4.598198c-0.143694,-2.873874 -0.718469,-5.747748 -1.14955,-8.621622c-0.143694,-1.436937 -0.574775,-2.586487 -0.862162,-3.87973c-0.431081,-2.011712 -0.862162,-4.310811 -1.436937,-6.322523c-0.718469,-2.299099 -0.718469,-4.454505 0.143694,-6.466217c0.143694,-0.574775 0.718469,-1.005856 1.14955,-1.724324c0.431081,-1.14955 0.574775,-2.442793 0.574775,-3.448649c-0.287387,-0.574775 -1.724324,-0.143694 -2.011712,-0.718469c-0.862162,-6.322523 -1.724324,-12.501352 -2.299099,-19.111262c-0.143694,-2.155406 -0.143694,-4.454505 -0.431081,-6.753604c-0.431081,-4.454505 0,-9.052703 -0.431081,-13.363514c-0.143694,-2.155406 -0.718469,-4.167117 -1.005856,-6.178829c-0.718469,-5.747748 -2.299099,-13.076127 -1.14955,-19.111262c0.718469,-3.87973 2.155406,-6.897298 4.310811,-9.771172c1.580631,-2.011712 3.161261,-3.87973 5.02928,-5.604054c1.724324,-1.724324 3.736036,-3.304955 5.891442,-4.885586c1.293243,-1.005856 2.73018,-2.155406 4.310811,-2.73018c3.304955,-1.580631 7.615766,-2.873874 12.213965,-3.017568c4.598198,-0.143694 9.771172,-0.287387 14.225676,0.574775c4.310811,0.718469 8.621622,1.580631 12.932433,2.442793c4.167117,0.862162 8.190541,2.011712 12.213965,3.017568c0.574775,0.143694 1.005856,0.431081 1.436937,0.574775c1.293243,0.287387 2.73018,0.431081 4.023424,0.862162c3.736036,1.005856 8.477928,1.436937 12.932433,1.436937c4.885586,0 9.196397,-0.143694 13.21982,-1.14955c0.574775,-0.143694 1.005856,-0.431081 1.724324,-0.718469c0.574775,-0.287387 1.436937,-0.143694 2.011712,-0.431081c0.431081,-0.143694 0.862162,-0.574775 1.293243,-0.718469c2.299099,-1.14955 4.310811,-2.155406 6.322523,-3.592343c1.580631,-1.14955 3.017568,-2.155406 5.172973,-3.017568c1.005856,-0.431081 1.868018,-0.862162 2.873874,-1.14955c2.011712,-0.718469 4.310811,-1.293243 5.891442,-2.299099c2.442793,-1.580631 4.310811,-3.87973 6.322523,-5.604054c2.155406,-1.868018 4.310811,-3.592343 6.60991,-5.460361c4.598198,-3.592343 9.196397,-6.897298 13.507208,-10.345946c2.155406,-1.724324 4.598198,-3.448649 7.184685,-4.885586c5.02928,-2.873874 10.058559,-6.178829 17.243244,-6.753604c2.873874,-0.143694 5.747748,-0.287387 8.621622,0.143694c0.718469,0.143694 1.868018,0.574775 2.586487,0.431081c0.718469,-0.143694 1.293243,-1.293243 1.868018,-2.299099c1.005856,-1.868018 1.868018,-3.161261 2.73018,-5.460361c0.574775,-1.436937 0.287387,-2.873874 1.724324,-2.73018c1.436937,0 1.293243,3.87973 1.293243,5.316667c0.143694,1.724324 -0.143694,4.023424 0.143694,5.172973c0.143694,0.862162 1.293243,2.011712 2.442793,2.011712c0.862162,0 1.293243,-0.574775 2.011712,-1.14955c0.718469,-0.431081 1.436937,-0.718469 2.011712,-1.14955c1.14955,-0.862162 2.586487,-2.299099 3.736036,-3.592343c1.005856,-1.005856 2.586487,-3.304955 4.167117,-3.161261c2.873874,0.287387 0,4.454505 -0.574775,5.891442c-1.436937,3.304955 -2.873874,5.604054 -4.598198,8.765316c-0.718469,1.293243 -2.299099,3.017568 -2.299099,4.310811c0,0.862162 0.718469,1.580631 1.14955,2.442793c0.143694,0.431081 0.287387,1.005856 0.431081,1.436937c1.005856,2.299099 1.724324,5.460361 2.442793,8.046847c0.718469,2.155406 1.14955,4.598198 2.011712,6.753604c0.718469,2.155406 1.868018,4.167117 2.73018,6.178829c0.287387,0.574775 0.287387,1.293243 0.431081,1.724324c1.868018,4.598198 3.592343,9.914865 5.747748,14.36937c0.862162,1.868018 2.155406,4.023424 2.155406,6.753604c0,2.873874 -1.580631,4.310811 -2.873874,6.466217c-0.718469,1.14955 -1.724324,2.873874 -2.73018,3.304955c-0.718469,0.287387 -1.724324,0 -2.442793,0.143694c-1.14955,0.143694 -1.868018,0.862162 -2.873874,1.005856c-2.73018,0.287387 -5.172973,-1.724324 -5.891442,-3.736036c-0.287387,-0.718469 -0.143694,-1.580631 -0.287387,-2.442793c-0.574775,-3.161261 -2.155406,-4.741892 -4.454505,-6.897298c-1.436937,-1.293243 -2.586487,-2.299099 -4.310811,-3.304955c-2.586487,-1.293243 -5.316667,-2.155406 -8.046847,-3.592343c-1.005856,-0.574775 -2.155406,-1.005856 -3.017568,-0.862162c-1.436937,0.287387 -2.873874,2.586487 -4.023424,4.023424c-7.040991,9.196397 -13.21982,18.680181 -19.973424,27.732884c-4.454505,6.035135 -9.340091,12.070271 -12.932433,18.967568c-0.862162,1.724324 -1.436937,3.736036 -2.155406,5.747748c-0.718469,2.011712 -1.005856,4.167117 -1.724324,6.178829c-2.586487,7.472072 -3.448649,16.668469 -5.891442,24.571623c-0.287387,0.862162 -0.287387,1.724324 -0.574775,2.73018c-1.14955,4.023424 -2.155406,8.621622 -3.448649,12.932433c-1.005856,3.161261 -1.293243,7.472072 -1.436937,11.63919c-0.143694,3.87973 -0.287387,9.483784 1.14955,11.926577c0.718469,1.293243 3.448649,1.868018 4.454505,3.161261c0.718469,1.005856 1.14955,2.873874 1.868018,4.023424c0.431081,0.862162 1.868018,2.73018 1.724324,4.023424c-0.143694,1.005856 -1.005856,1.724324 -1.724324,2.011712c-0.862162,0.431081 -2.011712,0.143694 -2.873874,0.574775c-1.293243,0.718469 -0.862162,1.868018 -1.868018,2.442793z" class="st2"/>
  </g>
 </g>
</svg>