<?xml version="1.0" encoding="UTF-8"?>
<svg width="300px" height="300px" viewBox="0 0 300 300" version="1.1" xmlns="http://www.w3.org/2000/svg" xmlns:xlink="http://www.w3.org/1999/xlink">
    <!-- Generator: Sketch 55.2 (78181) - https://sketchapp.com -->
    <title>ciaicon12 dark copy 4</title>
    <desc>Created with Sketch.</desc>
    <defs>
        <linearGradient x1="65.8240906%" y1="3.08659735%" x2="-126.595374%" y2="257.919351%" id="linearGradient-1">
            <stop stop-color="#00FF9E" offset="0%"></stop>
            <stop stop-color="#C5C5C5" offset="100%"></stop>
        </linearGradient>
        <path d="M182.184366,126.938757 L182.184366,126.938757 C180.982536,125.547289 179.556072,124.371424 177.965475,123.461036 C177.059674,122.927988 176.103656,122.48719 175.11152,122.145142 C179.875119,119.76125 182.36307,114.358125 181.098622,109.142853 C180.686151,107.474735 179.888924,105.928784 178.772028,104.631216 C175.726544,100.897414 170.697106,99.4807846 166.177952,101.083873 C161.658798,102.686961 158.61105,106.968826 158.54617,111.805973 C158.541271,115.357316 160.197288,118.7024 163.013231,120.829248 C163.581508,121.321056 164.206447,121.741839 164.874506,122.08248 L164.347145,122.270465 C162.148514,123.122669 160.166466,124.460789 158.54617,126.186817 C158.30501,126.4037 158.0867,126.645187 157.894724,126.907426 L157.55349,127.283396 C156.939244,126.231918 156.222169,125.245285 155.413024,124.338299 L155.413024,124.338299 C153.736662,122.447063 151.686585,120.931517 149.394901,119.889323 C148.311962,119.333413 147.166105,118.91258 145.982563,118.63609 C149.973017,117.216979 153.035645,113.933531 154.200322,109.825817 C155.365,105.718104 154.487425,101.295065 151.84558,97.9577519 L151.84558,97.9577519 C150.042458,95.6383851 147.499149,94.0218828 144.648649,93.3834528 C140.737517,92.4121699 136.601386,93.3087597 133.429353,95.8154612 C130.25732,98.3221626 128.400795,102.161274 128.393512,106.229087 C128.39747,110.23392 130.228516,114.013464 133.356912,116.474264 C133.356912,116.474264 133.356912,116.474264 133.356912,116.474264 C134.48273,117.356419 135.738933,118.054225 137.079463,118.542098 C136.709209,118.628226 136.346188,118.743457 135.993719,118.886737 C131.609041,120.244993 127.875249,123.190429 125.508535,127.158072 L125.508535,127.158072 C125.322408,126.938757 125.167301,126.719441 124.981174,126.531456 C123.844887,125.278194 122.514269,124.220008 121.041475,123.398374 C120.128756,122.849317 119.161876,122.397804 118.156498,122.051149 C122.932144,119.677544 125.434158,114.271886 124.174621,109.048861 C123.792017,107.403991 123.038238,105.870666 121.972112,104.568554 C120.417895,102.561896 118.227049,101.156826 115.767861,100.58954 C111.991961,99.6127523 107.984073,100.666149 105.158593,103.377983 C103.99637,104.592355 103.99637,106.518595 105.158593,107.732967 C105.740348,108.366656 106.568315,108.710312 107.423144,108.672891 L107.640293,108.672891 C108.379989,108.709113 109.104155,108.450313 109.656674,107.952282 C111.179202,106.576583 113.357164,106.226183 115.22755,107.056015 C117.097935,107.885848 118.31579,109.742868 118.342626,111.805973 C118.349155,114.173907 116.789289,116.254755 114.530898,116.890782 C112.272508,117.52681 109.871606,116.561429 108.663994,114.531754 C108.137244,113.531927 107.117241,112.897048 105.996167,112.87122 L105.747996,112.87122 C104.960047,112.882424 104.205853,113.196074 103.638551,113.748483 C102.757118,114.708039 102.559186,116.119884 103.142211,117.288865 C103.901509,118.688152 104.961499,119.897894 106.244337,120.829248 C106.823191,121.321943 107.458499,121.742696 108.136633,122.08248 L107.423144,122.301796 C101.183904,124.647237 97.0334063,130.648163 97.0000015,137.371918 L97.0000015,140.912301 C96.9987723,142.19625 97.7732975,143.351006 98.9543419,143.826066 C99.3225567,143.961822 99.7102595,144.035903 100.102128,144.045382 C101.815385,144.045382 103.204254,142.642654 103.204254,140.912301 L103.204254,137.779219 C103.130274,132.948308 106.417902,128.725865 111.083652,127.659365 C113.97192,127.067822 116.970612,127.815755 119.254182,129.697257 C121.537752,131.578759 122.865439,134.395461 122.871729,137.371918 L122.871729,173.183041 C122.856006,173.309111 122.749365,173.403353 122.623559,173.402357 L103.514466,173.402357 C103.38866,173.403353 103.282019,173.309111 103.266296,173.183041 L103.266296,154.384551 C103.266296,152.654198 101.877427,151.25147 100.164171,151.25147 C99.7708451,151.245636 99.3804168,151.320238 99.0163844,151.470786 C97.83534,151.945846 97.0608148,153.100603 97.0620454,154.384551 L97.0620454,173.183041 C97.0420253,175.441791 98.2272345,177.536604 100.164171,178.665934 L100.164171,178.665934 C101.188838,179.30668 102.371357,179.643261 103.576509,179.637189 L122.933771,179.637189 L122.933771,179.637189 C122.927661,180.229235 123.000703,180.819405 123.15092,181.391715 C123.873264,184.652775 126.729054,186.978394 130.037638,187 L153.055409,187 C154.942001,187.008306 156.75372,186.255087 158.087755,184.907739 C159.421791,183.560391 160.167568,181.730593 160.159276,179.825174 L160.159276,179.825174 L179.547559,179.825174 C181.255989,179.83351 182.897278,179.153902 184.108241,177.936734 C185.319205,176.719566 186.000001,175.065193 186.000001,173.339695 L186.000001,137.371918 C186.006207,133.544921 184.652257,129.842771 182.184366,126.938757 Z M165.000001,112.532528 C164.988126,110.30215 166.201913,108.284667 168.072921,107.425048 C169.94393,106.56543 172.101645,107.033907 173.535411,108.61105 C174.969177,110.188193 175.395065,112.561679 174.613594,114.619788 C173.832123,116.677898 171.998047,118.013063 169.97043,118 C167.232106,117.982132 165.016245,115.544684 165.000001,112.532528 L165.000001,112.532528 Z M135.000001,107 C135.000001,103.134007 138.134008,100 142.000001,100 C145.865995,100 149.000001,103.134007 149.000001,107 C149.000001,110.865993 145.865995,114 142.000001,114 C138.146289,114 135.017361,110.885205 135.000001,107.031532 L135.000001,107 Z M180.000001,173.497237 C180.000645,173.560855 179.973394,173.621582 179.925391,173.663477 C179.877389,173.705373 179.813428,173.724252 179.750298,173.71516 L160.461615,173.71516 C160.340952,173.71516 160.243135,173.617592 160.243135,173.497237 L160.243135,163.815249 C160.234886,162.685576 159.613744,161.64901 158.620139,161.106782 C158.169453,160.832631 157.649781,160.692245 157.121989,160.702069 C155.398227,160.702069 154.000843,162.095887 154.000843,163.815249 L154.000843,180.097178 C154.000843,180.595793 153.595601,181 153.09571,181 L129.905595,181 C129.405704,181 129.000001,180.595793 129.000001,180.097178 L129.000001,137.757935 C128.95039,131.854063 132.985381,126.694202 138.738438,125.305217 C142.432803,124.474152 146.305661,125.36067 149.267072,127.715278 C152.228482,130.069885 153.958274,133.638014 153.969631,137.415485 L153.969631,150.584235 C153.969631,152.303597 155.367016,153.697415 157.090777,153.697415 C157.61857,153.707238 158.138242,153.566853 158.588928,153.292701 C159.582533,152.750474 160.203675,151.713908 160.211924,150.584235 L160.211924,138.318307 C160.12223,133.523386 163.419677,129.324347 168.108423,128.262737 C171.0144,127.674951 174.031479,128.418133 176.329051,130.287684 C178.626622,132.157234 179.96245,134.956044 179.968778,137.913594 L180.000001,173.497237 Z" id="path-2"></path>
        <filter x="-7.9%" y="-5.3%" width="115.7%" height="114.9%" filterUnits="objectBoundingBox" id="filter-3">
            <feOffset dx="0" dy="2" in="SourceAlpha" result="shadowOffsetOuter1"></feOffset>
            <feGaussianBlur stdDeviation="2" in="shadowOffsetOuter1" result="shadowBlurOuter1"></feGaussianBlur>
            <feColorMatrix values="0 0 0 0 0   0 0 0 0 0   0 0 0 0 0  0 0 0 0.5 0" type="matrix" in="shadowBlurOuter1"></feColorMatrix>
        </filter>
        <linearGradient x1="68.4626954%" y1="19.2072895%" x2="40.2800244%" y2="66.8304692%" id="linearGradient-4">
            <stop stop-color="#E3E3E3" offset="0%"></stop>
            <stop stop-color="#EFEFEF" offset="100%"></stop>
        </linearGradient>
        <path d="M141.871411,2 C170.418227,2 194.33583,12.3 214.395755,32.385 C234.712859,52.47 245,76.675 245,105 C245,133.5825 234.712859,157.7875 214.395755,177.615 C194.33583,197.7 170.418227,208 141.871411,208 C113.324594,208 89.4069913,197.7 69.3470662,177.615 C49.2871411,157.53 39,133.5825 39,105 C39,76.675 49.2871411,52.47 69.3470662,32.385 C89.1498127,12.3 113.324594,2 141.871411,2 Z M142,36 C123.06391,36 106.721805,42.4849624 92.9736842,56.2330827 C79.4849624,69.7218045 73,86.0639098 73,105 C73,123.93609 79.4849624,140.537594 92.9736842,154.026316 C106.462406,167.515038 123.06391,174 142,174 C160.93609,174 177.278195,167.515038 190.766917,154.026316 C204.515038,140.278195 211,123.93609 211,105 C211,86.0639098 204.255639,69.7218045 190.766917,56.2330827 C177.278195,42.7443609 160.93609,36 142,36 Z" id="path-5"></path>
        <filter x="-17.2%" y="-16.3%" width="134.5%" height="134.5%" filterUnits="objectBoundingBox" id="filter-6">
            <feOffset dx="0" dy="2" in="SourceAlpha" result="shadowOffsetOuter1"></feOffset>
            <feGaussianBlur stdDeviation="11.5" in="shadowOffsetOuter1" result="shadowBlurOuter1"></feGaussianBlur>
            <feColorMatrix values="0 0 0 0 0   0 0 0 0 0   0 0 0 0 0  0 0 0 0.614865603 0" type="matrix" in="shadowBlurOuter1"></feColorMatrix>
        </filter>
    </defs>
    <g id="ciaicon12-dark-copy-4" stroke="none" stroke-width="1" fill="none" fill-rule="evenodd">
        <g id="CiaLogoV1" transform="translate(5.000000, 37.000000)">
            <g id="Group">
                <polygon id="Polygon" stroke="url(#linearGradient-1)" stroke-width="20" transform="translate(127.030872, 121.509766) rotate(193.000000) translate(-127.030872, -121.509766) " points="127.057957 28 235.061744 214.988257 19 215.019532"></polygon>
                <g id="Shape" fill-rule="nonzero">
                    <use fill="black" fill-opacity="1" filter="url(#filter-3)" xlink:href="#path-2"></use>
                    <use fill="#F0F0F0" xlink:href="#path-2"></use>
                </g>
                <g id="O" fill-rule="nonzero" transform="translate(142.000000, 105.000000) rotate(-1.000000) translate(-142.000000, -105.000000) ">
                    <use fill="black" fill-opacity="1" filter="url(#filter-6)" xlink:href="#path-5"></use>
                    <use fill="#FFFFFF" xlink:href="#path-5"></use>
                    <use fill="url(#linearGradient-4)" xlink:href="#path-5"></use>
                </g>
            </g>
        </g>
    </g>
</svg>