<?xml version="1.0" encoding="UTF-8"?>
<svg width="300px" height="300px" viewBox="0 0 300 300" version="1.1" xmlns="http://www.w3.org/2000/svg" xmlns:xlink="http://www.w3.org/1999/xlink">
    <!-- Generator: Sketch 55.2 (78181) - https://sketchapp.com -->
    <title>ciaicon12 dark copy 3</title>
    <desc>Created with Sketch.</desc>
    <defs>
        <linearGradient x1="59.3849712%" y1="3.96587696%" x2="-63.8060561%" y2="169.52762%" id="linearGradient-1">
            <stop stop-color="#00FF9E" offset="0%"></stop>
            <stop stop-color="#C5C5C5" offset="100%"></stop>
        </linearGradient>
        <linearGradient x1="61.4754103%" y1="19.2072895%" x2="43.9585903%" y2="66.8304692%" id="linearGradient-2">
            <stop stop-color="#E3E3E3" offset="0%"></stop>
            <stop stop-color="#EFEFEF" offset="100%"></stop>
        </linearGradient>
        <text id="text-3" font-family="Anurati-Regular, Anurati" font-size="220" font-weight="normal" line-spacing="241" letter-spacing="31.5789474">
            <tspan x="32.0105263" y="200">C</tspan>
        </text>
        <filter x="-18.7%" y="-13.9%" width="137.4%" height="129.5%" filterUnits="objectBoundingBox" id="filter-4">
            <feOffset dx="0" dy="2" in="SourceAlpha" result="shadowOffsetOuter1"></feOffset>
            <feGaussianBlur stdDeviation="11.5" in="shadowOffsetOuter1" result="shadowBlurOuter1"></feGaussianBlur>
            <feColorMatrix values="0 0 0 0 0   0 0 0 0 0   0 0 0 0 0  0 0 0 0.614865603 0" type="matrix" in="shadowBlurOuter1"></feColorMatrix>
        </filter>
    </defs>
    <g id="ciaicon12-dark-copy-3" stroke="none" stroke-width="1" fill="none" fill-rule="evenodd">
        <g id="CiaLogoV1" transform="translate(16.000000, 40.000000)">
            <g id="Group">
                <polygon id="Polygon" stroke="url(#linearGradient-1)" stroke-width="12" transform="translate(126.611716, 118.876393) rotate(193.000000) translate(-126.611716, -118.876393) " points="126.638801 25.3666265 234.642588 212.354884 18.5808442 212.386159"></polygon>
                <g id="C" transform="translate(127.000000, 122.500000) rotate(-1.000000) translate(-127.000000, -122.500000) ">
                    <use fill="#EFEFEF" fill-opacity="1" filter="url(#filter-4)" xlink:href="#text-3"></use>
                    <use fill="url(#linearGradient-2)" fill-rule="evenodd" xlink:href="#text-3"></use>
                    <use fill="#EFEFEF" fill-opacity="1" xlink:href="#text-3"></use>
                </g>
                <path d="M188.28385,107.242689 C186.798445,105.510765 185.035403,104.047198 183.069502,102.914061 C181.949974,102.250589 180.768381,101.701939 179.542148,101.276201 C185.429731,98.3090337 188.504721,91.5839039 186.941922,85.0925903 C186.432128,83.0163272 185.446793,81.0921221 184.066362,79.4770723 C180.302289,74.8297066 174.086142,73.0664644 168.500681,75.0617866 C162.915221,77.0571088 159.148349,82.3866354 159.068161,88.4073059 C159.062106,92.8275707 161.108864,96.9911099 164.589236,99.638342 C165.2916,100.250483 166.063994,100.774221 166.889684,101.198208 L166.237891,101.432188 C163.520487,102.492904 161.070769,104.158427 159.068161,106.30677 C158.770098,106.576718 158.500277,106.877291 158.263005,107.203693 L157.841256,107.671653 C157.082076,106.362905 156.195806,105.134869 155.195741,104.005967 C153.123837,101.651995 150.590039,99.7656347 147.757626,98.4684424 C146.419165,97.7765155 145.00294,97.252715 143.540138,96.9085763 C148.47215,95.1422456 152.257413,91.0554225 153.696899,85.9426581 C155.136385,80.8298937 154.051744,75.324652 150.786549,71.1707851 C148.557976,68.2839294 145.414567,66.271911 141.891483,65.4772737 C137.05751,64.2683432 131.945448,65.3843051 128.024966,68.5043314 C124.104484,71.6243577 121.809907,76.4027996 121.800905,81.4659016 C121.805797,86.4506126 124.068883,91.1549134 127.935433,94.2178072 C129.32689,95.315802 130.879497,96.1843431 132.536328,96.7915863 C132.078712,96.8987874 131.630036,97.0422121 131.1944,97.2205495 C125.775146,98.9111351 121.160357,102.577243 118.23521,107.515666 C118.005166,107.242689 117.813462,106.969713 117.583417,106.735733 C116.17902,105.17583 114.53444,103.858733 112.714135,102.836068 C111.586058,102.15267 110.391041,101.590684 109.148441,101.159211 C115.050913,98.2048459 118.143284,91.4765644 116.586556,84.9756004 C116.113676,82.9282735 115.182041,81.0197842 113.864359,79.399079 C111.94342,76.9014436 109.235639,75.15259 106.1962,74.446504 C101.529365,73.2307211 96.5758058,74.5418563 93.0836463,77.9172061 C91.6471941,79.4287032 91.6471941,81.8262439 93.0836463,83.3377409 C93.8026684,84.1264783 94.8259959,84.5542177 95.8825246,84.5076405 L96.1509102,84.5076405 C97.0651388,84.5527257 97.9601737,84.2306035 98.6430621,83.6107175 C100.524834,81.89842 103.216691,81.4622861 105.5284,82.4951575 C107.840108,83.5280289 109.345319,85.8394135 109.378486,88.4073059 C109.386556,91.3546128 107.458635,93.9445893 104.667372,94.7362364 C101.876109,95.5278835 98.9087072,94.326299 97.4161566,91.8000147 C96.765118,90.5555571 95.5044427,89.7653392 94.1188478,89.7331921 L93.8121215,89.7331921 C92.8382537,89.747137 91.9061049,90.1375286 91.2049471,90.8250984 C90.1155377,92.019432 89.870903,93.7767193 90.5914943,95.2317202 C91.5299504,96.9733757 92.8400483,98.4791101 94.4255742,99.638342 C95.1410115,100.251587 95.926222,100.775287 96.764363,101.198208 L95.8825246,101.471185 C88.1711191,104.390494 83.0413011,111.859691 83,120.228575 L83,124.635197 C82.9984951,126.233295 83.9557716,127.67059 85.4154865,128.261886 C85.8705825,128.430857 86.3497647,128.523064 86.834096,128.534862 C88.9515999,128.534862 90.6681759,126.788922 90.6681759,124.635197 L90.6681759,120.735531 C90.576741,114.722622 94.6400932,109.467057 100.406739,108.139612 C103.976501,107.403333 107.682742,108.334266 110.505126,110.676123 C113.32751,113.01798 114.968469,116.523856 114.976243,120.228575 L114.976243,164.80175 C114.95681,164.958666 114.825007,165.075966 114.669516,165.074726 L91.0515839,165.074726 C90.8960928,165.075966 90.7642897,164.958666 90.7448575,164.80175 L90.7448575,141.403758 C90.7448575,139.250032 89.0282815,137.504092 86.9107776,137.504092 C86.4246456,137.496831 85.9420948,137.589686 85.4921681,137.777069 C84.0324532,138.368365 83.0751767,139.80566 83.0766977,141.403758 L83.0766977,164.80175 C83.0519538,167.613157 84.5168162,170.220517 86.9107776,171.626164 C88.1772181,172.423684 89.6387556,172.842617 91.1282655,172.83506 L115.052924,172.83506 C115.045372,173.571964 115.135649,174.306533 115.32131,175.018873 C116.214093,179.077829 119.743714,181.972467 123.832967,182 L152.28184,182 C154.613579,182.009699 156.852778,181.072185 158.501582,179.395177 C160.150387,177.718168 161.072132,175.440666 161.061883,173.06904 L185.024882,173.06904 C187.13642,173.079415 189.164975,172.233525 190.661669,170.718548 C192.158363,169.203571 193,167.144416 193,164.996733 L193,120.228575 C193.007465,115.465211 191.334047,110.85724 188.28385,107.242689 Z M167,90.0354854 C166.98575,87.6023458 168.442294,85.4014544 170.687504,84.4636888 C172.932714,83.5259232 175.521972,84.0369895 177.242491,85.7575089 C178.96301,87.4780283 179.474077,90.0672857 178.536311,92.3124961 C177.598546,94.5577065 175.397654,96.01425 172.964515,96 C169.678526,95.980508 167.019492,93.321474 167,90.0354854 L167,90.0354854 Z M131,81 C131,76.0294373 134.80558,72 139.5,72 C144.19442,72 148,76.0294373 148,81 C148,85.9705627 144.19442,90 139.5,90 C134.820492,90 131.021079,85.9952639 131,81.0405405 L131,81 Z M185,165.621546 C185.000795,165.701069 184.967132,165.776978 184.907835,165.829347 C184.848537,165.881716 184.769527,165.905315 184.691543,165.89395 L160.864346,165.89395 C160.715292,165.89395 160.594459,165.771991 160.594459,165.621546 L160.594459,153.519061 C160.58427,152.10697 159.816976,150.811262 158.589582,150.133478 C158.032852,149.790788 157.390904,149.615307 156.738926,149.627586 C154.609573,149.627586 152.883392,151.369859 152.883392,153.519061 L152.883392,173.871472 C152.883392,174.494741 152.3828,175 151.765287,175 L123.118674,175 C122.501162,175 122,174.494741 122,173.871472 L122,120.947419 C121.938716,113.567578 126.923116,107.117752 134.029834,105.381521 C138.593461,104.34269 143.377579,105.450838 147.035793,108.394097 C150.694006,111.337356 152.830807,115.797518 152.844837,120.519357 L152.844837,136.980294 C152.844837,139.129496 154.571018,140.871768 156.70037,140.871768 C157.352349,140.884048 157.994297,140.708566 158.551026,140.365877 C159.778421,139.688093 160.545714,138.392385 160.555904,136.980294 L160.555904,121.647884 C160.445106,115.654233 164.518423,110.405434 170.310403,109.078422 C173.90014,108.343689 177.627119,109.272667 180.465296,111.609605 C183.303473,113.946543 184.953613,117.445055 184.96143,121.141993 L185,165.621546 Z" id="Shape" fill="#EFEFEF" fill-rule="nonzero"></path>
            </g>
        </g>
    </g>
</svg>