<?xml version="1.0" encoding="UTF-8"?>
<svg width="141px" height="156px" viewBox="0 0 141 156" version="1.1" xmlns="http://www.w3.org/2000/svg" xmlns:xlink="http://www.w3.org/1999/xlink">
    <!-- Generator: Sketch 55.2 (78181) - https://sketchapp.com -->
    <title>rank2Asset 2</title>
    <desc>Created with Sketch.</desc>
    <g id="Page-1" stroke="none" stroke-width="1" fill="none" fill-rule="evenodd">
        <g id="Artboard" transform="translate(-583.000000, -346.000000)">
            <g id="rank2Asset-2" transform="translate(553.000000, 330.000000)">
                <path d="M105.86,41.48 L95.11,41.48 C90.0728934,41.447044 86.0053853,37.3572115 86,32.32 L86,25.16 C86.0053853,20.1227885 90.0728934,16.032956 95.11,16 L105.86,16 C110.911116,16.0110287 115,20.1088719 115,25.16 L115,32.32 C115,37.3711281 110.911116,41.4689713 105.86,41.48 Z M95.11,24.55 C94.7753497,24.5553554 94.5053554,24.8253497 94.5,25.16 L94.5,32.32 C94.5103979,32.6524915 94.7775085,32.9196021 95.11,32.93 L105.86,32.93 C106.192492,32.9196021 106.459602,32.6524915 106.47,32.32 L106.47,25.16 C106.459602,24.8275085 106.192492,24.5603979 105.86,24.55 L95.11,24.55 Z" id="Shape" fill="#E1AD3D" fill-rule="nonzero"></path>
                <circle id="Oval" fill="#F4CC6A" fill-rule="nonzero" transform="translate(100.478622, 100.534850) rotate(-45.000000) translate(-100.478622, -100.534850) " cx="100.478622" cy="100.53485" r="70.48"></circle>
                <path d="M81.84,58.16 C80.1711283,57.3755074 78.9110056,55.9229164 78.37,54.16 C80.066978,53.4110581 82.006354,53.4402766 83.68,54.24 C85.3488717,55.0244926 86.6089944,56.4770836 87.15,58.24 C85.4519423,58.9836036 83.514886,58.9544201 81.84,58.16 L81.84,58.16 Z" id="Path" fill="#C68F30" fill-rule="nonzero"></path>
                <path d="M82.38,50.59 C81.6097093,52.2779938 80.153774,53.555577 78.38,54.1 C77.6408584,52.3837211 77.6699669,50.4334554 78.46,48.74 C79.2304568,47.0542446 80.6868898,45.7798658 82.46,45.24 C83.1885628,46.9549022 83.1595124,48.8976485 82.38,50.59 L82.38,50.59 Z" id="Path" fill="#C68F30" fill-rule="nonzero"></path>
                <path d="M74.93,61.71 C73.1428478,61.2168118 71.6489922,59.9882881 70.82,58.33 C72.3607703,57.300224 74.2727142,56.9900804 76.06,57.48 C77.8494566,57.9627903 79.3459366,59.189831 80.17,60.85 C78.628798,61.8781873 76.7189961,62.1916281 74.93,61.71 Z" id="Path" fill="#C68F30" fill-rule="nonzero"></path>
                <path d="M74.16,54.16 C73.68374,55.9564983 72.4656188,57.4655142 70.81,58.31 C69.7950996,56.7491876 69.488902,54.831491 69.9673035,53.0322438 C70.4457051,51.2329967 71.6639225,49.7206266 73.32,48.87 C74.3339028,50.4358093 74.6389903,52.3571339 74.16,54.16 Z" id="Path" fill="#C68F30" fill-rule="nonzero"></path>
                <path d="M68.74,66.41 C66.8921406,66.248529 65.2024587,65.3017245 64.1,63.81 C65.4353738,62.5305538 67.2576311,61.8891192 69.1,62.05 C70.9491346,62.2151607 72.6386207,63.1654966 73.74,64.66 C72.4008303,65.9324166 70.5803679,66.5695784 68.74,66.41 L68.74,66.41 Z" id="Path" fill="#C68F30" fill-rule="nonzero"></path>
                <path d="M66.67,59.12 C66.5154189,60.9733913 65.5766961,62.6725523 64.09,63.79 C62.8211363,62.4282365 62.188365,60.5927882 62.3484567,58.7383919 C62.5085485,56.8839957 63.4465249,55.1841515 64.93,54.06 C66.206142,55.420696 66.8393941,57.2622224 66.67,59.12 Z" id="Path" fill="#C68F30" fill-rule="nonzero"></path>
                <path d="M63.44,72.14 C61.5991376,72.3035272 59.7770937,71.6658118 58.44,70.39 C59.5337132,68.8929959 61.2203593,67.9409306 63.0671707,67.7780893 C64.9139822,67.615248 66.7412043,68.2574806 68.08,69.54 C66.9801803,71.0347149 65.2890321,71.982341 63.44,72.14 Z" id="Path" fill="#C68F30" fill-rule="nonzero"></path>
                <path d="M60.15,65.32 C60.3116619,67.1768361 59.679466,69.0152909 58.41,70.38 C56.9260011,69.2539554 55.9879076,67.5524351 55.8278449,65.6964692 C55.6677821,63.8405034 56.3007047,62.003495 57.57,60.64 C59.0562214,61.7622764 59.9944369,63.4641555 60.15,65.32 Z" id="Path" fill="#C68F30" fill-rule="nonzero"></path>
                <path d="M59.19,78.73 C57.4166397,79.1991587 55.5272512,78.8860808 54,77.87 C54.8259469,76.2092866 56.3210562,74.979732 58.11,74.49 C59.8989961,74.0083719 61.808798,74.3218127 63.35,75.35 C62.5078792,77.0176202 60.994693,78.2470841 59.19,78.73 Z" id="Path" fill="#C68F30" fill-rule="nonzero"></path>
                <path d="M54.78,72.58 C55.2637355,74.379364 54.9582454,76.2995875 53.94,77.86 C52.2827409,77.0175372 51.0639365,75.507675 50.59,73.71 C50.111422,71.9103688 50.4165745,69.992267 51.43,68.43 C53.0922432,69.2662987 54.3131402,70.7787533 54.78,72.58 L54.78,72.58 Z" id="Path" fill="#C68F30" fill-rule="nonzero"></path>
                <path d="M56.14,86 C54.4688434,86.7953422 52.5344002,86.8245414 50.84,86.08 C51.374233,84.3133384 52.6364644,82.8583166 54.31,82.08 C55.9802202,81.2806616 57.9164153,81.251436 59.61,82 C59.075767,83.7666616 57.8135356,85.2216834 56.14,86 L56.14,86 Z" id="Path" fill="#C68F30" fill-rule="nonzero"></path>
                <path d="M50.74,80.67 C51.5111772,82.3572315 51.5401926,84.2903839 50.82,86 C49.0468898,85.4601342 47.5904568,84.1857554 46.82,82.5 C46.0299669,80.8065446 46.0008584,78.8562789 46.74,77.14 C48.5189703,77.6866164 49.976412,78.9728087 50.74,80.67 L50.74,80.67 Z" id="Path" fill="#C68F30" fill-rule="nonzero"></path>
                <path d="M54.37,93.61 C52.8592325,94.6800715 50.9595886,95.0446864 49.16,94.61 C49.3637791,92.7544291 50.3543145,91.0756174 51.88,90 C53.3907675,88.9299285 55.2904114,88.5653136 57.09,89 C56.8862209,90.8555709 55.8956855,92.5343826 54.37,93.61 L54.37,93.61 Z" id="Path" fill="#C68F30" fill-rule="nonzero"></path>
                <path d="M48.14,89.36 C49.2062551,90.8913136 49.5699294,92.8042407 49.14,94.62 C47.2985096,94.4000948 45.6407805,93.3981706 44.59,91.87 C43.5230079,90.3427777 43.1591503,88.4325255 43.59,86.62 C45.4302135,86.8362566 47.0881223,87.8346456 48.14,89.36 L48.14,89.36 Z" id="Path" fill="#C68F30" fill-rule="nonzero"></path>
                <path d="M53.93,101.47 C52.6369686,102.783751 50.8402706,103.47619 49,103.37 C48.8864216,101.511715 49.5702201,99.6931022 50.88,98.37 C52.1909177,97.0394714 54.016296,96.3458276 55.88,96.47 C55.9713925,98.3382621 55.2621206,100.156908 53.93,101.47 L53.93,101.47 Z" id="Path" fill="#C68F30" fill-rule="nonzero"></path>
                <path d="M47.07,98.37 C48.3779964,99.694868 49.0645639,101.511184 48.96,103.37 C47.0960942,103.495524 45.2701706,102.801673 43.96,101.47 C42.6498392,100.146521 41.9628941,98.3292059 42.07,96.47 C43.933704,96.3458276 45.7590823,97.0394714 47.07,98.37 L47.07,98.37 Z" id="Path" fill="#C68F30" fill-rule="nonzero"></path>
                <path d="M54.85,109.22 C53.8052731,110.759533 52.1466347,111.772942 50.3,112 C49.8739493,110.184156 50.237322,108.272816 51.3,106.74 C52.3554989,105.218503 54.0115019,104.221261 55.85,104 C56.2667614,105.803182 55.9036716,107.69851 54.85,109.22 Z" id="Path" fill="#C68F30" fill-rule="nonzero"></path>
                <path d="M47.56,107.38 C49.0863198,108.458045 50.0739021,110.141673 50.27,112 C48.4736461,112.435686 46.5766306,112.070875 45.07,111 C43.5506115,109.923077 42.5614865,108.250292 42.35,106.4 C44.1467532,105.960903 46.045589,106.318074 47.56,107.38 L47.56,107.38 Z" id="Path" fill="#C68F30" fill-rule="nonzero"></path>
                <path d="M57.1,116.7 C56.3253418,118.382621 54.8705608,119.655554 53.1,120.2 C52.3714372,118.485098 52.4004876,116.542352 53.18,114.85 C53.9556985,113.168157 55.4100718,111.89558 57.18,111.35 C57.9136036,113.063911 57.8845213,115.008789 57.1,116.7 Z" id="Path" fill="#C68F30" fill-rule="nonzero"></path>
                <path d="M49.6,116.16 C51.2673838,116.943666 52.5246363,118.397137 53.06,120.16 C51.3645332,120.899245 49.4323826,120.870081 47.76,120.08 C46.0903571,119.296527 44.8298875,117.843536 44.29,116.08 C45.9891141,115.341658 47.9238996,115.370807 49.6,116.16 Z" id="Path" fill="#C68F30" fill-rule="nonzero"></path>
                <path d="M60.6,123.67 C60.1330401,125.46816 58.9167566,126.979411 57.26,127.82 C56.2414762,126.262883 55.932104,124.346494 56.408911,122.547977 C56.885718,120.749461 58.1038445,119.23803 59.76,118.39 C60.7782454,119.950413 61.0837355,121.870636 60.6,123.67 L60.6,123.67 Z" id="Path" fill="#C68F30" fill-rule="nonzero"></path>
                <path d="M53.13,124.46 C54.9207513,124.946236 56.4171339,126.176838 57.24,127.84 C55.6943205,128.864032 53.7827116,129.173371 51.9929537,128.689084 C50.2031959,128.204797 48.7084038,126.973726 47.89,125.31 C49.4307703,124.280224 51.3427142,123.97008 53.13,124.46 L53.13,124.46 Z" id="Path" fill="#C68F30" fill-rule="nonzero"></path>
                <path d="M65.27,129.93 C65.1141693,131.783013 64.1757105,133.481696 62.69,134.6 C61.4211363,133.238237 60.788365,131.402788 60.9484567,129.548392 C61.1085485,127.693996 62.0465249,125.994151 63.53,124.87 C64.8027871,126.232715 65.4355071,128.072694 65.27,129.93 L65.27,129.93 Z" id="Path" fill="#C68F30" fill-rule="nonzero"></path>
                <path d="M58,132 C59.8455397,132.167928 61.5308735,133.117975 62.63,134.61 C61.2882643,135.886268 59.4627063,136.524292 57.6180761,136.361643 C55.7734459,136.198994 54.0877017,135.251364 52.99,133.76 C54.3270473,132.476665 56.1540961,131.834828 58,132 L58,132 Z" id="Path" fill="#C68F30" fill-rule="nonzero"></path>
                <path d="M71,135.28 C71.1616619,137.136836 70.529466,138.975291 69.26,140.34 C67.7709959,139.218798 66.8292508,137.517112 66.67,135.66 C66.5134011,133.803789 67.1449107,131.96733 68.41,130.6 C69.8990041,131.721202 70.8407492,133.422888 71,135.28 Z" id="Path" fill="#C68F30" fill-rule="nonzero"></path>
                <path d="M64.18,138.6 C66.0208624,138.436473 67.8429063,139.074188 69.18,140.35 C68.0862868,141.847004 66.3996407,142.799069 64.5528293,142.961911 C62.7060178,143.124752 60.8787957,142.482519 59.54,141.2 C60.6398197,139.705285 62.3309679,138.757659 64.18,138.6 L64.18,138.6 Z" id="Path" fill="#C68F30" fill-rule="nonzero"></path>
                <path d="M77.47,139.56 C77.948578,141.359631 77.6434255,143.277733 76.63,144.84 C74.9677568,144.003701 73.7468598,142.491247 73.28,140.69 C72.7962645,138.890636 73.1017546,136.970413 74.12,135.41 C75.7772591,136.252463 76.9960635,137.762325 77.47,139.56 L77.47,139.56 Z" id="Path" fill="#C68F30" fill-rule="nonzero"></path>
                <path d="M71.38,144 C73.1642657,143.51448 75.0713238,143.824423 76.61,144.85 C75.7937373,146.513154 74.3007475,147.744208 72.512527,148.228598 C70.7243065,148.712987 68.8140952,148.403785 67.27,147.38 C68.089749,145.714366 69.5874252,144.482701 71.38,144 Z" id="Path" fill="#C68F30" fill-rule="nonzero"></path>
                <path d="M84.63,142.64 C85.4196005,144.330046 85.4487153,146.2771 84.71,147.99 C82.9368898,147.450134 81.4804568,146.175755 80.71,144.49 C79.9304876,142.797648 79.9014372,140.854902 80.63,139.14 C82.4031102,139.679866 83.8595432,140.954245 84.63,142.64 L84.63,142.64 Z" id="Path" fill="#C68F30" fill-rule="nonzero"></path>
                <path d="M79.4,148.09 C81.0723826,147.299919 83.0045332,147.270755 84.7,148.01 C84.1806637,149.789718 82.9228164,151.261146 81.2455501,152.051011 C79.5682838,152.840875 77.6327657,152.873278 75.93,152.14 C76.4598104,150.358901 77.7212084,148.886664 79.4,148.09 L79.4,148.09 Z" id="Path" fill="#C68F30" fill-rule="nonzero"></path>
                <path d="M91,51.73 C89.2625138,52.3659442 87.3354392,52.2238725 85.71,51.34 C86.3891887,49.6132434 87.7709152,48.2569698 89.51,47.61 C91.2474862,46.9740558 93.1745608,47.1161275 94.8,48 C94.1240752,49.7289147 92.7411818,51.0863337 91,51.73 L91,51.73 Z" id="Path" fill="#C68F30" fill-rule="nonzero"></path>
                <path d="M107.77,160.06 L107.2,160.63 C105.109722,158.775389 102.864901,157.102647 100.49,155.63 C100.22,155.48 99.98,155.33 99.74,155.18 C94.9451692,152.391175 89.8535363,150.147234 84.56,148.49 C83.96,148.28 83.43,148.1 82.95,147.92 C82.47,147.74 82.17,147.65 81.78,147.47 C79.9607462,146.803055 78.1869743,146.018053 76.47,145.12 C75.6755103,144.736516 74.9011644,144.312629 74.15,143.85 C73.31,143.37 72.51,142.85 71.73,142.35 C70.95,141.85 69.91,141.14 69.05,140.48 C68.42,140.03 67.79,139.55 67.17,139.04 L67.17,139.04 C65.5510964,137.697477 64.0149532,136.258178 62.57,134.73 C62.04,134.19 61.5,133.62 60.99,133.05 C59.5815385,131.426242 58.2756726,129.716259 57.08,127.93 C56.61,127.23 56.16,126.57 55.74,125.85 C54.6392846,124.068274 53.6539304,122.217812 52.79,120.31 C52.43,119.47 52.07,118.62 51.74,117.78 C51.0050998,115.893196 50.3872604,113.962865 49.89,112 C49.65,111 49.45,110.07 49.24,109.11 C48.8831018,107.198717 48.6327156,105.269074 48.49,103.33 C48.43,102.33 48.3697552,101.33 48.3697552,100.33 L48.3697552,99.88 C48.3641163,98.0889781 48.4642917,96.2991791 48.67,94.52 C48.76,93.52 48.91,92.52 49.09,91.52 C49.4189657,89.6198913 49.8563467,87.7401547 50.4,85.89 C50.67,84.89 51,83.99 51.33,83.06 C51.9857894,81.2292759 52.750488,79.4394135 53.62,77.7 C54.04,76.85 54.46,76.04 54.93,75.23 C55.9075389,73.4946748 56.9964866,71.8245098 58.19,70.23 C58.69,69.54 59.19,68.88 59.74,68.23 C61.0447962,66.612377 62.4474208,65.076169 63.94,63.63 C64.51,63.08 65.11,62.51 65.73,61.97 C67.3116799,60.57992 68.981852,59.2938875 70.73,58.12 C71.44,57.64 72.16,57.12 72.9,56.7 C74.631584,55.6408157 76.424764,54.6857887 78.27,53.84 C79.14,53.42 80.03,53.03 80.93,52.67 C82.54,52.04 84.18,51.46 85.88,50.98 C87.28,50.56 88.72,50.23 90.15,49.93 L90.33,50.68 C88.95,50.95 87.61,51.28 86.33,51.68 C84.4132282,52.2380392 82.5301217,52.9058075 80.69,53.68 C79.97,53.98 79.26,54.28 78.57,54.68 C76.7674236,55.4916603 75.0232475,56.4272337 73.35,57.48 C72.61,57.94 71.86,58.42 71.14,58.96 C69.522718,60.0501187 67.9793462,61.2460648 66.52,62.54 C65.8,63.11 65.15,63.75 64.52,64.38 C63.1020277,65.7674314 61.766414,67.2366065 60.52,68.78 C59.96,69.47 59.42,70.16 58.91,70.88 C57.6825306,72.5303443 56.5667116,74.2608659 55.57,76.06 C55.15,76.78 54.8,77.51 54.44,78.23 C53.4590548,80.1704592 52.6104523,82.1750321 51.9,84.23 C51.6572637,84.9019007 51.4503068,85.5861937 51.28,86.28 C50.648157,88.3898723 50.1669466,90.5419521 49.84,92.72 C49.72,93.41 49.63,94.11 49.58,94.8 C49.3742912,96.528963 49.2741056,98.2688525 49.28,100.01 C49.28,100.49 49.28,101.01 49.28,101.45 C49.28,102.14 49.34,102.84 49.37,103.5 C49.5129691,105.615556 49.8104287,107.717827 50.26,109.79 C50.41,110.54 50.56,111.3 50.77,112.05 C51.2504485,114.007853 51.868655,115.929305 52.62,117.8 C52.92,118.61 53.24,119.4 53.62,120.18 C54.4287927,121.981189 55.3471798,123.731134 56.37,125.42 C56.81,126.2 57.29,126.92 57.8,127.68 C58.8967638,129.287822 60.0819197,130.833533 61.35,132.31 C61.95,133.01 62.57,133.7 63.2,134.31 C64.5364712,135.733133 65.9627242,137.069201 67.47,138.31 C68.15,138.89 68.87,139.46 69.61,140.03 L71.82,141.57 C72.75,142.2 73.7,142.77 74.71,143.37 C75.43,143.76 76.18,144.19 76.92,144.58 C78.8677609,145.559644 80.8711861,146.424456 82.92,147.17 L83.28,147.29 L84.89,147.86 L84.89,147.86 C90.3568906,149.574722 95.6107366,151.906409 100.55,154.81 C100.79,154.96 101.03,155.11 101.3,155.3 C103.581389,156.70976 105.7451,158.301609 107.77,160.06 L107.77,160.06 Z" id="Path" fill="#C68F30" fill-rule="nonzero"></path>
                <path d="M119.12,58.16 C120.793536,57.3816834 122.055767,55.9266616 122.59,54.16 C120.896415,53.411436 118.96022,53.4406616 117.29,54.24 C115.616464,55.0183166 114.354233,56.4733384 113.82,58.24 C115.5144,58.9845414 117.448843,58.9553422 119.12,58.16 Z" id="Path" fill="#C68F30" fill-rule="nonzero"></path>
                <path d="M118.59,50.59 C119.360291,52.2779938 120.816226,53.555577 122.59,54.1 C123.319016,52.3817264 123.289972,50.4357514 122.51,48.74 C121.739543,47.0542446 120.28311,45.7798658 118.51,45.24 C117.771285,46.9528996 117.8004,48.8999537 118.59,50.59 L118.59,50.59 Z" id="Path" fill="#C68F30" fill-rule="nonzero"></path>
                <path d="M126,61.71 C127.788944,61.220268 129.284053,59.9907134 130.11,58.33 C128.573309,57.2993821 126.663979,56.9890702 124.88,57.48 C123.089198,57.9649289 121.590379,59.1909045 120.76,60.85 C122.301202,61.8781873 124.211004,62.1916281 126,61.71 L126,61.71 Z" id="Path" fill="#C68F30" fill-rule="nonzero"></path>
                <path d="M126.81,54.16 C127.279314,55.956976 128.494904,57.4673648 130.15,58.31 C131.16882,56.7513073 131.478356,54.8334936 131.001642,53.0334211 C130.524928,51.2333485 129.306748,49.7201207 127.65,48.87 C126.632498,50.4344275 126.327159,52.3573328 126.81,54.16 Z" id="Path" fill="#C68F30" fill-rule="nonzero"></path>
                <path d="M132.23,66.41 C134.075047,66.2482838 135.761544,65.3012231 136.86,63.81 C135.521204,62.5274806 133.693982,61.885248 131.847171,62.0480893 C130.000359,62.2109306 128.313713,63.1629959 127.22,64.66 C128.560866,65.9362784 130.3861,66.5738353 132.23,66.41 Z" id="Path" fill="#C68F30" fill-rule="nonzero"></path>
                <path d="M134.29,59.12 C134.45201,60.9711339 135.389169,62.6674651 136.87,63.79 C138.138864,62.4282365 138.771635,60.5927882 138.611543,58.7383919 C138.451452,56.8839957 137.513475,55.1841515 136.03,54.06 C134.757213,55.422715 134.124493,57.2626937 134.29,59.12 L134.29,59.12 Z" id="Path" fill="#C68F30" fill-rule="nonzero"></path>
                <path d="M137.53,72.14 C139.370533,72.3008898 141.191519,71.6635444 142.53,70.39 C141.436287,68.8929959 139.749641,67.9409306 137.902829,67.7780893 C136.056018,67.615248 134.228796,68.2574806 132.89,69.54 C133.988042,71.0367251 135.680181,71.9849064 137.53,72.14 L137.53,72.14 Z" id="Path" fill="#C68F30" fill-rule="nonzero"></path>
                <path d="M140.82,65.32 C140.653202,67.1774633 141.286098,69.0179552 142.56,70.38 C144.043999,69.2539554 144.982092,67.5524351 145.142155,65.6964692 C145.302218,63.8405034 144.669295,62.003495 143.4,60.64 C141.910819,61.7597094 140.971812,63.4630231 140.82,65.32 Z" id="Path" fill="#C68F30" fill-rule="nonzero"></path>
                <path d="M141.77,78.73 C143.558996,79.2116281 145.468798,78.8981873 147.01,77.87 C146.176768,76.2111394 144.679713,74.9829724 142.89,74.49 C141.104235,74.0087363 139.197629,74.322251 137.66,75.35 C138.485947,77.0107134 139.981056,78.240268 141.77,78.73 L141.77,78.73 Z" id="Path" fill="#C68F30" fill-rule="nonzero"></path>
                <path d="M146.18,72.58 C145.700492,74.3808391 146.009549,76.3006315 147.03,77.86 C148.686757,77.0194109 149.90304,75.5081604 150.37,73.71 C150.853735,71.910636 150.548245,69.9904125 149.53,68.43 C147.872741,69.2724628 146.653937,70.782325 146.18,72.58 L146.18,72.58 Z" id="Path" fill="#C68F30" fill-rule="nonzero"></path>
                <path d="M144.82,86 C146.494886,86.7944201 148.431942,86.8236036 150.13,86.08 C149.588994,84.3170836 148.328872,82.8644926 146.66,82.08 C144.98978,81.2806616 143.053585,81.251436 141.36,82 C141.893103,83.764109 143.151058,85.2183922 144.82,86 L144.82,86 Z" id="Path" fill="#C68F30" fill-rule="nonzero"></path>
                <path d="M150.23,80.67 C149.439967,82.3634554 149.410858,84.3137211 150.15,86.03 C151.92311,85.4901342 153.379543,84.2157554 154.15,82.53 C154.929972,80.8342486 154.959016,78.8882736 154.23,77.17 C152.45689,77.7098658 151.000457,78.9842446 150.23,80.67 Z" id="Path" fill="#C68F30" fill-rule="nonzero"></path>
                <path d="M146.6,93.61 C148.107161,94.6796338 150.003614,95.0443363 151.8,94.61 C151.601141,92.7552872 150.613856,91.07581 149.09,90 C147.578707,88.9311621 145.67962,88.5666541 143.88,89 C144.083779,90.8555709 145.074314,92.5343826 146.6,93.61 L146.6,93.61 Z" id="Path" fill="#C68F30" fill-rule="nonzero"></path>
                <path d="M152.82,89.36 C151.757322,90.8928156 151.393949,92.8041561 151.82,94.62 C153.66149,94.4000948 155.31922,93.3981706 156.37,91.87 C157.432202,90.3407619 157.795654,88.4326393 157.37,86.62 C155.531502,86.8412614 153.875499,87.8385027 152.82,89.36 Z" id="Path" fill="#C68F30" fill-rule="nonzero"></path>
                <path d="M147,101.47 C148.310918,102.800529 150.136296,103.494172 152,103.37 C152.104564,101.511184 151.417996,99.694868 150.11,98.37 C148.812274,97.050832 147.007089,96.3579329 145.16,96.47 C145.034607,98.3224609 145.703724,100.140713 147,101.47 Z" id="Path" fill="#C68F30" fill-rule="nonzero"></path>
                <path d="M153.9,98.37 C152.592004,99.694868 151.905436,101.511184 152.01,103.37 C153.873704,103.494172 155.699082,102.800529 157.01,101.47 C158.320878,100.147602 159.004869,98.3284788 158.89,96.47 C157.029293,96.3460954 155.207086,97.0399214 153.9,98.37 L153.9,98.37 Z" id="Path" fill="#C68F30" fill-rule="nonzero"></path>
                <path d="M146.12,109.22 C147.164727,110.759533 148.823365,111.772942 150.67,112 C151.099929,110.184241 150.736255,108.271314 149.67,106.74 C148.618122,105.214646 146.960214,104.216257 145.12,104 C144.69811,105.803081 145.0616,107.700499 146.12,109.22 Z" id="Path" fill="#C68F30" fill-rule="nonzero"></path>
                <path d="M153.41,107.38 C151.881859,108.457856 150.891027,110.140813 150.69,112 C152.489589,112.434686 154.389232,112.070071 155.9,111 C157.419388,109.923077 158.408514,108.250292 158.62,106.4 C156.823283,105.959565 154.923891,106.31684 153.41,107.38 Z" id="Path" fill="#C68F30" fill-rule="nonzero"></path>
                <path d="M143.87,116.7 C144.640457,118.385755 146.09689,119.660134 147.87,120.2 C148.602087,118.491234 148.574804,116.552095 147.794935,114.864601 C147.015065,113.177107 145.555845,111.899733 143.78,111.35 C143.054597,113.066307 143.087279,115.009063 143.87,116.7 L143.87,116.7 Z" id="Path" fill="#C68F30" fill-rule="nonzero"></path>
                <path d="M151.37,116.16 C149.701897,116.945508 148.44212,118.397701 147.9,120.16 C149.602766,120.893278 151.538284,120.860875 153.21555,120.071011 C154.892816,119.281146 156.150664,117.809718 156.67,116.03 C154.96735,115.306483 153.035131,115.353877 151.37,116.16 Z" id="Path" fill="#C68F30" fill-rule="nonzero"></path>
                <path d="M140.36,123.67 C140.833937,125.467675 142.052741,126.977537 143.71,127.82 C144.7246,126.26076 145.03063,124.34449 144.552136,122.546801 C144.073642,120.749113 142.855482,119.238539 141.2,118.39 C140.186575,119.952267 139.881422,121.870369 140.36,123.67 Z" id="Path" fill="#C68F30" fill-rule="nonzero"></path>
                <path d="M147.84,124.46 C146.047425,124.942701 144.549749,126.174366 143.73,127.84 C145.271107,128.859376 147.175392,129.168868 148.96,128.69 C150.749713,128.197028 152.246768,126.968861 153.08,125.31 C151.53923,124.280224 149.627286,123.97008 147.84,124.46 L147.84,124.46 Z" id="Path" fill="#C68F30" fill-rule="nonzero"></path>
                <path d="M135.7,129.93 C135.852068,131.784151 136.791323,133.484275 138.28,134.6 C139.548864,133.238237 140.181635,131.402788 140.021543,129.548392 C139.861452,127.693996 138.923475,125.994151 137.44,124.87 C136.163858,126.230696 135.530606,128.072222 135.7,129.93 L135.7,129.93 Z" id="Path" fill="#C68F30" fill-rule="nonzero"></path>
                <path d="M142.93,132 C141.082888,132.162867 139.395611,133.11401 138.3,134.61 C139.641736,135.886268 141.467294,136.524292 143.311924,136.361643 C145.156554,136.198994 146.842298,135.251364 147.94,133.76 C146.602249,132.47781 144.775737,131.836161 142.93,132 L142.93,132 Z" id="Path" fill="#C68F30" fill-rule="nonzero"></path>
                <path d="M130,135.28 C129.833202,137.137463 130.466098,138.977955 131.74,140.34 C133.223999,139.213955 134.162092,137.512435 134.322155,135.656469 C134.482218,133.800503 133.849295,131.963495 132.58,130.6 C131.090819,131.719709 130.151812,133.423023 130,135.28 L130,135.28 Z" id="Path" fill="#C68F30" fill-rule="nonzero"></path>
                <path d="M136.78,138.6 C134.939467,138.43911 133.118481,139.076456 131.78,140.35 C132.869036,141.854639 134.551379,142.819619 136.4,143 C138.242536,143.162208 140.065327,142.520586 141.4,141.24 C140.316154,139.731172 138.630174,138.767755 136.78,138.6 L136.78,138.6 Z" id="Path" fill="#C68F30" fill-rule="nonzero"></path>
                <path d="M123.5,139.56 C123.016265,141.359364 123.321755,143.279587 124.34,144.84 C125.997259,143.997537 127.216063,142.487675 127.69,140.69 C128.168578,138.890369 127.863425,136.972267 126.85,135.41 C125.190261,136.249399 123.970418,137.760547 123.5,139.56 Z" id="Path" fill="#C68F30" fill-rule="nonzero"></path>
                <path d="M129.59,144 C127.802501,143.514118 125.892249,143.823987 124.35,144.85 C125.168404,146.513726 126.663196,147.744797 128.452954,148.229084 C130.242712,148.713371 132.15432,148.404032 133.7,147.38 C132.880251,145.714366 131.382575,144.482701 129.59,144 Z" id="Path" fill="#C68F30" fill-rule="nonzero"></path>
                <path d="M116.33,142.64 C115.550488,144.332352 115.521437,146.275098 116.25,147.99 C118.020561,147.445554 119.475342,146.172621 120.25,144.49 C121.029512,142.797648 121.058563,140.854902 120.33,139.14 C118.559439,139.684446 117.104658,140.957379 116.33,142.64 L116.33,142.64 Z" id="Path" fill="#C68F30" fill-rule="nonzero"></path>
                <path d="M121.57,148.09 C119.8939,147.300807 117.959114,147.271658 116.26,148.01 C116.787531,149.79234 118.049633,151.265398 119.73,152.06 C121.402383,152.850081 123.334533,152.879245 125.03,152.14 C124.507032,150.358335 123.24814,148.884777 121.57,148.09 Z" id="Path" fill="#C68F30" fill-rule="nonzero"></path>
                <path d="M110,51.73 C111.737486,52.3659442 113.664561,52.2238725 115.29,51.34 C114.609664,49.610473 113.223573,48.2534862 111.48,47.61 C109.742514,46.9740558 107.815439,47.1161275 106.19,48 C106.870336,49.729527 108.256427,51.0865138 110,51.73 Z" id="Path" fill="#C68F30" fill-rule="nonzero"></path>
                <path d="M152.58,99.88 L152.58,100.39 C152.58,101.39 152.52,102.39 152.46,103.39 C152.322086,105.341106 152.061572,107.281605 151.68,109.2 L151.68,109.2 C151.5,110.2 151.29,111.1 151.06,112.03 C150.571371,113.982048 149.963565,115.902314 149.24,117.78 C148.91,118.62 148.55,119.47 148.24,120.31 C147.386195,122.207562 146.410836,124.048052 145.32,125.82 C144.919212,126.544985 144.481986,127.249219 144.01,127.93 C142.813336,129.669486 141.517875,131.338894 140.13,132.93 C139.62,133.53 139.13,134.1 138.52,134.67 C137.085039,136.188192 135.558876,137.617508 133.95,138.95 C133.33,139.46 132.67,139.95 132.01,140.42 L132.01,140.42 C131.12,141.11 130.25,141.75 129.3,142.35 C128.55,142.86 127.75,143.35 126.94,143.79 C126.188836,144.252629 125.41449,144.676516 124.62,145.06 C122.903571,145.953719 121.137343,146.748354 119.33,147.44 L119.33,147.44 C118.95,147.59 118.56,147.71 118.17,147.86 L116.56,148.43 L116.56,148.43 C111.278517,150.093887 106.197548,152.337562 101.41,155.12 C101.150952,155.254377 100.900473,155.404665 100.66,155.57 C98.2668542,157.029566 96.0109552,158.703081 93.92,160.57 L93.35,160 C95.3945015,158.193446 97.5890927,156.564229 99.91,155.13 C100.145915,154.946062 100.396788,154.782158 100.66,154.64 C105.599263,151.736409 110.853109,149.404722 116.32,147.69 C116.92,147.48 117.46,147.3 117.93,147.12 L118.35,146.97 C120.376528,146.228953 122.359674,145.374264 124.29,144.41 C125.06,143.99 125.81,143.59 126.55,143.14 C127.55,142.6 128.43,142.03 129.33,141.43 C130.07,140.94 130.82,140.43 131.54,139.89 C132.26,139.35 133,138.78 133.71,138.17 C135.217276,136.929201 136.643529,135.593133 137.98,134.17 C138.64,133.48 139.23,132.82 139.86,132.09 L139.86,132.09 C141.101116,130.627671 142.265996,129.102312 143.35,127.52 C143.89,126.76 144.35,125.98 144.84,125.17 C145.852664,123.511444 146.761088,121.79145 147.56,120.02 C147.88,119.27 148.21,118.54 148.56,117.76 L148.56,117.76 C149.307916,115.85447 149.935811,113.903989 150.44,111.92 C150.65,111.17 150.8,110.41 150.95,109.66 L150.95,109.6 C151.399575,107.548065 151.69705,105.465739 151.84,103.37 C151.84,102.74 151.9,102.1 151.93,101.44 L151.93,101.44 C151.93,100.93 151.93,100.44 151.93,99.91 C151.935894,98.1688525 151.835709,96.428963 151.63,94.7 C151.57,94.04 151.48,93.37 151.4,92.7 C151.077393,90.4890031 150.585956,88.305955 149.93,86.17 C149.75,85.48 149.55,84.78 149.31,84.12 C148.599548,82.0650321 147.750945,80.0604592 146.77,78.12 C146.44,77.4 146.06,76.7 145.67,76.01 C144.656396,74.1951516 143.530889,72.4451061 142.3,70.77 C141.79,70.05 141.3,69.36 140.69,68.67 C139.443586,67.1266065 138.107972,65.6574314 136.69,64.27 C136.03,63.64 135.38,63 134.69,62.43 L134.69,62.43 C133.239091,61.1435437 131.702197,59.9574624 130.09,58.88 C129.38,58.34 128.63,57.88 127.89,57.4 C126.216753,56.3472337 124.472576,55.4116603 122.67,54.6 C121.992314,54.2489917 121.294424,53.9384475 120.58,53.67 L120.58,53.67 C118.739878,52.8958075 116.856772,52.2280392 114.94,51.67 C113.63,51.28 112.28,50.95 110.94,50.67 L111.09,49.92 C112.55,50.22 113.99,50.58 115.39,51 C117.091996,51.452838 118.762285,52.0173956 120.39,52.69 L120.39,52.69 C121.28,53.05 122.15,53.44 123.02,53.83 C124.891591,54.7082922 126.711248,55.693244 128.47,56.78 C129.19,57.2 129.88,57.69 130.56,58.14 C132.302818,59.3429068 133.972441,60.648552 135.56,62.05 L135.56,62.05 C136.13,62.56 136.7,63.11 137.27,63.65 C138.787752,65.0913253 140.201303,66.6385451 141.5,68.28 C142.04,68.92 142.55,69.58 143.02,70.28 C144.213718,71.872259 145.29948,73.542662 146.27,75.28 L146.27,75.28 C146.759055,76.0658235 147.199868,76.8806608 147.59,77.72 C148.490085,79.4657884 149.255641,81.2777151 149.88,83.14 L149.88,83.14 C150.24,84.07 150.54,84.97 150.81,85.91 C151.367758,87.7564161 151.805341,89.637019 152.12,91.54 C152.3,92.54 152.45,93.54 152.54,94.54 C152.658168,96.3176707 152.671524,98.1007585 152.58,99.88 L152.58,99.88 Z" id="Path" fill="#C68F30" fill-rule="nonzero"></path>
                <text id="2" font-family="TimesNewRomanPS-BoldMT, Times New Roman" font-size="82" font-weight="bold" fill="#C68F30">
                    <tspan x="80" y="126">2</tspan>
                </text>
            </g>
        </g>
    </g>
</svg>