<?xml version="1.0" encoding="UTF-8"?>
<svg width="160px" height="130px" viewBox="0 0 160 130" version="1.1" xmlns="http://www.w3.org/2000/svg" xmlns:xlink="http://www.w3.org/1999/xlink">
    <!-- Generator: Sketch 55.2 (78181) - https://sketchapp.com -->
    <title>rank3Asset 3</title>
    <desc>Created with Sketch.</desc>
    <g id="Page-1" stroke="none" stroke-width="1" fill="none" fill-rule="evenodd">
        <g id="Artboard" transform="translate(-869.000000, -367.000000)">
            <g id="rank3Asset-3" transform="translate(869.000000, 367.000000)">
                <path d="M4.39,129.33 C3.22569961,129.33 2.10908593,128.867483 1.28580123,128.044199 C0.462516529,127.220914 -1.1458184e-05,126.1043 -1.1458184e-05,124.94 L-1.1458184e-05,4.39 C-0.00266312991,3.22488524 0.458998153,2.10672356 1.28286086,1.28286086 C2.10672356,0.458998153 3.22488524,-0.00266312991 4.39,-1.1458184e-05 L155,-1.1458184e-05 C156.163383,-1.1458184e-05 157.278971,0.462832389 158.100669,1.28640581 C158.922366,2.10997924 159.382656,3.22662012 159.380011,4.39 L159.380011,124.94 C159.380011,127.36063 157.420624,129.324486 155,129.33 L4.39,129.33 Z" id="Path" fill="#E1AD3D" fill-rule="nonzero"></path>
                <path d="M138.29,118.28 L21.05,118.28 C21.05,112.757153 16.5728475,108.28 11.05,108.28 L11.05,21.05 C16.5728475,21.05 21.05,16.5728475 21.05,11.05 L138.29,11.05 C138.29,16.5728475 142.767153,21.05 148.29,21.05 L148.29,108.28 C145.637835,108.28 143.094296,109.333568 141.218932,111.208932 C139.343568,113.084296 138.29,115.627835 138.29,118.28 L138.29,118.28 Z" id="Path" fill="#F4CC6A" fill-rule="nonzero"></path>
                <polygon id="Path" fill="#C68F30" fill-rule="nonzero" points="106.06 70.19 106 112.07 115.21 102.89 124.39 112.1 124.39 70.22"></polygon>
                <polygon id="Path" fill="#F4CC6A" fill-rule="nonzero" points="123.36 81.92 123.33 109.53 115.21 101.39 107.07 109.5 107.11 81.9 108.21 81.91 108.17 106.85 115.21 99.83 122.23 106.87 122.26 81.92"></polygon>
                <path d="M98.24,65.09 C98.2221173,66.0889065 97.7999545,67.0378707 97.07,67.72 C96.8,67.97 96.54,68.22 96.28,68.49 C96.02,68.76 95.99,68.79 95.85,68.94 C94.8177199,70.0252265 94.5235628,71.6175966 95.1,73 C95.26,73.38 95.44,73.74 95.63,74.09 C96.1434805,75.0843358 96.1766016,76.2582952 95.72,77.28 L95.54,77.69 C94.862427,79.3631604 95.47664,81.2815243 97,82.25 L97.16,82.35 C98.1826403,83.0136495 98.8200521,84.1319158 98.87,85.35 L98.87,85.4 C98.9676428,87.1448781 100.272831,88.5835038 102,88.85 L102.21,88.85 C103.404284,89.0249381 104.438164,89.7714214 104.98,90.85 C104.983748,90.9003459 104.990426,90.9504308 105,91 C105.767183,92.5913841 107.545549,93.4262978 109.26,93 L109.45,93 C110.614334,92.6933954 111.855002,92.9774038 112.77,93.76 L112.93,93.9 C114.27682,95.0414892 116.240467,95.079091 117.63,93.99 L117.63,93.99 C118.577266,93.2397179 119.827408,92.9904336 120.99,93.32 L121.17,93.32 C122.886639,93.7961167 124.70035,92.9918845 125.5,91.4 L125.68,91.04 C126.154911,90.0075006 127.075745,89.2487333 128.18,88.98 C128.55,88.89 128.93,88.79 129.3,88.68 C130.73952,88.2118471 131.759437,86.9280907 131.89,85.42 C131.95,84.77 131.99,84.12 132,83.42 C132.022079,82.3984675 132.454614,81.4288679 133.2,80.73 C133.68,80.28 134.14,79.82 134.59,79.34 C135.620918,78.2351319 135.89249,76.6214417 135.28,75.24 C135.12,74.88 134.94,74.54 134.76,74.24 C134.223479,73.2367059 134.175586,72.0430539 134.63,71 L134.78,70.63 C135.429862,68.9708187 134.818912,67.0835694 133.32,66.12 L133.17,66.02 C132.127002,65.3703928 131.472068,64.2476499 131.42,63.02 L131.42,63.02 C131.304789,61.2573677 129.969007,59.8172276 128.22,59.57 L128.01,59.57 C126.806311,59.4061712 125.76168,58.6573315 125.22,57.57 L125.13,57.41 C124.324929,55.8749794 122.566394,55.0993991 120.89,55.54 L120.71,55.54 C119.547566,55.8618206 118.301202,55.5885937 117.38,54.81 L117.22,54.67 C115.85173,53.5549736 113.88827,53.5549736 112.52,54.67 L112.52,54.67 C111.583547,55.4419926 110.328713,55.7071511 109.16,55.38 L108.98,55.38 C107.250382,54.9353445 105.447159,55.772107 104.67,57.38 L104.48,57.78 C104.030669,58.8043994 103.134136,59.5644235 102.05,59.84 C101.66,59.94 101.27,60.05 100.88,60.18 C99.4546529,60.6707548 98.4541657,61.957656 98.33,63.46 C98.33,63.67 98.33,63.88 98.33,64.09 C98.33,64.3 98.25,64.73 98.24,65.09 Z" id="Path" fill="#C68F30" fill-rule="nonzero"></path>
                <path d="M123.36,63.43 C123.904797,63.3295479 124.379141,62.9975071 124.66,62.52 C124.221657,62.1855305 123.66119,62.0545123 123.12,62.16 C122.575203,62.2604521 122.100859,62.5924929 121.82,63.07 C122.258343,63.4044695 122.81881,63.5354877 123.36,63.43 L123.36,63.43 Z" id="Path" fill="#F4CC6A" fill-rule="nonzero"></path>
                <path d="M123.75,61.21 C123.855245,61.7555589 124.190505,62.2292951 124.67,62.51 C124.985544,62.0746129 125.10515,61.5273268 125,61 C124.899548,60.4552028 124.567507,59.9808588 124.09,59.7 C123.767495,60.1322667 123.643889,60.6812238 123.75,61.21 L123.75,61.21 Z" id="Path" fill="#F4CC6A" fill-rule="nonzero"></path>
                <path d="M106,87.51 C105.90045,86.9657799 106.030781,86.4046351 106.36,85.96 C106.839495,86.2407049 107.174755,86.7144411 107.28,87.26 C107.376713,87.8056137 107.242729,88.3668983 106.91,88.81 C106.440381,88.5206912 106.111092,88.0502784 106,87.51 Z" id="Path" fill="#F4CC6A" fill-rule="nonzero"></path>
                <path d="M107.9,86.32 C107.357281,86.4267001 106.795008,86.2916084 106.36,85.95 C106.649309,85.4803805 107.119722,85.1510916 107.66,85.04 C108.202719,84.9332999 108.764992,85.0683916 109.2,85.41 C108.910691,85.8796195 108.440278,86.2089084 107.9,86.32 L107.9,86.32 Z" id="Path" fill="#F4CC6A" fill-rule="nonzero"></path>
                <path d="M125.11,65 C125.661902,64.9849982 126.183053,64.7425183 126.55,64.33 C126.183566,63.9128575 125.655231,63.6737347 125.1,63.6737347 C124.544769,63.6737347 124.016434,63.9128575 123.65,64.33 C124.02165,64.7475524 124.551087,64.990513 125.11,65 Z" id="Path" fill="#F4CC6A" fill-rule="nonzero"></path>
                <path d="M125.88,62.84 C125.887779,63.3929076 126.136044,63.9149947 126.56,64.27 C126.966344,63.8946707 127.19211,63.3630288 127.18,62.81 C127.173401,62.2590023 126.929156,61.7377019 126.51,61.38 C126.101036,61.7542945 125.871743,62.2856718 125.88,62.84 L125.88,62.84 Z" id="Path" fill="#F4CC6A" fill-rule="nonzero"></path>
                <path d="M103.829998,85.66 C103.829195,85.1071793 104.057245,84.578682 104.46,84.2 C104.885077,84.557467 105.130339,85.0845967 105.13,85.64 C105.14211,86.1930288 104.916344,86.7246707 104.51,87.1 C104.085575,86.7410623 103.837535,86.2158025 103.829998,85.66 Z" id="Path" fill="#F4CC6A" fill-rule="nonzero"></path>
                <path d="M105.93,84.82 C105.376971,84.8321097 104.845329,84.606344 104.47,84.2 C104.825005,83.7760441 105.347092,83.527779 105.9,83.52 C106.454328,83.511743 106.985706,83.7410359 107.36,84.15 C107.000696,84.5670479 106.480404,84.810821 105.93,84.82 L105.93,84.82 Z" id="Path" fill="#F4CC6A" fill-rule="nonzero"></path>
                <path d="M126.57,66.76 C127.119376,66.8397967 127.677203,66.6876621 128.11,66.34 C127.812654,65.8726063 127.328806,65.5555145 126.781579,65.4694122 C126.234351,65.3833099 125.676508,65.5364995 125.25,65.89 C125.544654,66.3560963 126.025483,66.6730065 126.57,66.76 Z" id="Path" fill="#F4CC6A" fill-rule="nonzero"></path>
                <path d="M127.7,64.81 C127.620278,65.3546917 127.768593,65.9081597 128.11,66.34 C128.5866,66.0431712 128.911223,65.554413 129,65 C129.095337,64.4545063 128.945331,63.8947264 128.59,63.47 C128.1134,63.7668288 127.788777,64.255587 127.7,64.81 L127.7,64.81 Z" id="Path" fill="#F4CC6A" fill-rule="nonzero"></path>
                <path d="M102,83.46 C102.08677,82.9127714 102.403381,82.4287561 102.87,82.13 C103.223847,82.5581961 103.377169,83.1175319 103.291124,83.6663086 C103.205079,84.2150853 102.887922,84.7006527 102.42,85 C102.072338,84.5672034 101.920203,84.0093763 102,83.46 Z" id="Path" fill="#F4CC6A" fill-rule="nonzero"></path>
                <path d="M104.24,83 C103.692771,82.9132301 103.208756,82.5966187 102.91,82.13 C103.337236,81.7795264 103.894762,81.6301239 104.44,81.72 C104.987229,81.8067699 105.471244,82.1233813 105.77,82.59 C105.342764,82.9404736 104.785238,83.0898761 104.24,83 L104.24,83 Z" id="Path" fill="#F4CC6A" fill-rule="nonzero"></path>
                <path d="M127.7,68.79 C128.222394,68.9719133 128.797732,68.9209339 129.28,68.65 C129.077936,68.1292582 128.661222,67.7208799 128.136505,67.5293771 C127.611787,67.3378742 127.029988,67.3818318 126.54,67.65 C126.747725,68.1771614 127.169306,68.5914735 127.7,68.79 Z" id="Path" fill="#F4CC6A" fill-rule="nonzero"></path>
                <path d="M129.15,67.06 C128.97399,67.5864625 129.024701,68.1623949 129.29,68.65 C129.798181,68.4308008 130.192814,68.0108244 130.38,67.49 C130.553104,66.9665492 130.502448,66.3948576 130.24,65.91 C129.727302,66.1174393 129.329696,66.5369325 129.15,67.06 Z" id="Path" fill="#F4CC6A" fill-rule="nonzero"></path>
                <path d="M100.64,81 C100.819539,80.4745326 101.216709,80.0518563 101.73,79.84 C102.000934,80.3222679 102.051913,80.8976064 101.87,81.42 C101.682814,81.9408244 101.288181,82.3608008 100.78,82.58 C100.509066,82.0977321 100.458087,81.5223936 100.64,81 L100.64,81 Z" id="Path" fill="#F4CC6A" fill-rule="nonzero"></path>
                <path d="M102.89,80.91 C102.366933,80.7303045 101.947439,80.3326978 101.74,79.82 C102.224858,79.5575524 102.796549,79.5068962 103.32,79.68 C103.840824,79.8671857 104.260801,80.2618187 104.48,80.77 C103.992395,81.035299 103.416462,81.08601 102.89,80.91 Z" id="Path" fill="#F4CC6A" fill-rule="nonzero"></path>
                <path d="M128.46,71 C128.944858,71.2624476 129.516549,71.3131038 130.04,71.14 C129.917035,70.5993743 129.56975,70.1366525 129.084997,69.8675578 C128.600245,69.5984632 128.023863,69.5484405 127.5,69.73 C127.623564,70.2711836 127.973039,70.7335103 128.46,71 L128.46,71 Z" id="Path" fill="#F4CC6A" fill-rule="nonzero"></path>
                <path d="M130.18,69.54 C129.914701,70.0276051 129.86399,70.6035375 130.04,71.13 C130.584124,71.0128865 131.051198,70.6665681 131.321337,70.1799351 C131.591476,69.693302 131.638376,69.1137377 131.45,68.59 C130.913833,68.7181094 130.454319,69.061841 130.18,69.54 Z" id="Path" fill="#F4CC6A" fill-rule="nonzero"></path>
                <path d="M99.7,78.3 C99.9637718,77.8028205 100.42482,77.4397907 100.97,77.3 C101.157606,77.82063 101.11018,78.397036 100.84,78.88 C100.574272,79.3699029 100.105867,79.7175477 99.56,79.83 C99.4011027,79.3217011 99.4514918,78.7710199 99.7,78.3 Z" id="Path" fill="#F4CC6A" fill-rule="nonzero"></path>
                <path d="M101.93,78.62 C101.432821,78.3562282 101.069791,77.8951803 100.93,77.35 C101.45063,77.1623939 102.027036,77.2098197 102.51,77.48 C103.019029,77.7343689 103.386357,78.204548 103.51,78.76 C102.986549,78.9331038 102.414858,78.8824476 101.93,78.62 Z" id="Path" fill="#F4CC6A" fill-rule="nonzero"></path>
                <path d="M128.82,73.29 C129.245368,73.644095 129.804569,73.7939463 130.35,73.7 C130.327985,73.146734 130.069404,72.6295718 129.64,72.28 C129.205635,71.9358856 128.647966,71.7874153 128.1,71.87 C128.125773,72.424548 128.387882,72.9414858 128.82,73.29 L128.82,73.29 Z" id="Path" fill="#F4CC6A" fill-rule="nonzero"></path>
                <path d="M130.77,72.17 C130.418333,72.5966221 130.268784,73.1546969 130.36,73.7 C130.912937,73.6767102 131.429606,73.4183761 131.78,72.99 C132.124114,72.5556354 132.272585,71.9979663 132.19,71.45 C131.635452,71.4757731 131.118514,71.7378825 130.77,72.17 Z" id="Path" fill="#F4CC6A" fill-rule="nonzero"></path>
                <path d="M99.24,75.49 C99.5885142,75.0578825 100.105452,74.7957731 100.66,74.77 C100.742585,75.3179663 100.594114,75.8756354 100.25,76.31 C99.9021072,76.7414937 99.3839306,77.000582 98.83,77.02 C98.7502782,76.4753083 98.8985932,75.9218403 99.24,75.49 Z" id="Path" fill="#F4CC6A" fill-rule="nonzero"></path>
                <path d="M101.38,76.19 C100.947882,75.8414858 100.685773,75.324548 100.66,74.77 C101.207966,74.6874153 101.765635,74.8358856 102.2,75.18 C102.626176,75.5332929 102.88686,76.0474213 102.92,76.6 C102.371637,76.6902168 101.810914,76.5409334 101.38,76.19 Z" id="Path" fill="#F4CC6A" fill-rule="nonzero"></path>
                <path d="M128.78,75.63 C129.146947,76.0425183 129.668098,76.2849982 130.22,76.3 C130.285871,75.7482423 130.119221,75.1939523 129.76,74.77 C129.393053,74.3574817 128.871902,74.1150018 128.32,74.1 C128.254129,74.6517577 128.420779,75.2060477 128.78,75.63 L128.78,75.63 Z" id="Path" fill="#F4CC6A" fill-rule="nonzero"></path>
                <path d="M130.9,74.85 C130.475583,75.2122602 130.230806,75.7420021 130.23,76.3 C130.778438,76.3630157 131.328533,76.1965397 131.75,75.84 C132.162518,75.4730532 132.404998,74.9519024 132.42,74.4 C131.87237,74.3267079 131.31947,74.4903954 130.9,74.85 Z" id="Path" fill="#F4CC6A" fill-rule="nonzero"></path>
                <path d="M99.27,72.64 C99.6871867,72.2756604 100.240799,72.1081197 100.79,72.18 C100.783202,72.7339328 100.539919,73.2585359 100.121475,73.621569 C99.703032,73.984602 99.1493501,74.1514302 98.6,74.08 C98.6076159,73.5263841 98.8514138,73.0024006 99.27,72.64 Z" id="Path" fill="#F4CC6A" fill-rule="nonzero"></path>
                <path d="M101.26,73.7 C100.893315,73.2841161 100.725446,72.7294168 100.8,72.18 C101.353616,72.1876159 101.877599,72.4314138 102.24,72.85 C102.606685,73.2658839 102.774554,73.8205832 102.7,74.37 C102.145797,74.3649691 101.620802,74.1207005 101.26,73.7 Z" id="Path" fill="#F4CC6A" fill-rule="nonzero"></path>
                <path d="M128.34,77.92 C128.621848,78.3965922 129.095724,78.7283055 129.64,78.83 C129.808185,78.3006434 129.738889,77.724392 129.45,77.25 C129.160691,76.7803805 128.690278,76.4510916 128.15,76.34 C127.983149,76.8694816 128.052377,77.4451704 128.34,77.92 L128.34,77.92 Z" id="Path" fill="#F4CC6A" fill-rule="nonzero"></path>
                <path d="M130.55,77.53 C130.073408,77.8118477 129.741694,78.2857238 129.64,78.83 C130.168856,78.9935134 130.742286,78.9245508 131.217293,78.6403092 C131.692301,78.3560677 132.024118,77.8833366 132.13,77.34 C131.600518,77.1731488 131.02483,77.2423772 130.55,77.53 L130.55,77.53 Z" id="Path" fill="#F4CC6A" fill-rule="nonzero"></path>
                <path d="M99.8,69.83 C100.274074,69.5499117 100.844837,69.4844739 101.37,69.65 C101.267079,70.19376 100.935687,70.6671764 100.46,70.95 C99.9849945,71.2263376 99.4172116,71.2950502 98.89,71.14 C98.9902619,70.5925503 99.3219727,70.1150325 99.8,69.83 L99.8,69.83 Z" id="Path" fill="#F4CC6A" fill-rule="nonzero"></path>
                <path d="M101.57,71.22 C101.281531,70.7491412 101.212179,70.1760785 101.38,69.65 C101.922606,69.7533703 102.39542,70.083138 102.67989,70.5566184 C102.96436,71.0300987 103.03351,71.6023908 102.87,72.13 C102.325203,72.0295479 101.850859,71.6975071 101.57,71.22 L101.57,71.22 Z" id="Path" fill="#F4CC6A" fill-rule="nonzero"></path>
                <path d="M127.5,80.1 C127.705576,80.6135356 128.114657,81.0189969 128.63,81.22 C128.884319,80.7321716 128.920743,80.1596132 128.730292,79.6434901 C128.53984,79.127367 128.140235,78.715705 127.63,78.51 C127.368015,78.9990298 127.320931,79.5749092 127.5,80.1 L127.5,80.1 Z" id="Path" fill="#F4CC6A" fill-rule="nonzero"></path>
                <path d="M129.76,80.1 C129.244657,80.3010031 128.835576,80.7064644 128.63,81.22 C129.117283,81.4775777 129.691126,81.515726 130.208217,81.3249177 C130.725307,81.1341093 131.136827,80.7323584 131.34,80.22 C130.856335,79.9504981 130.278819,79.9066361 129.76,80.1 L129.76,80.1 Z" id="Path" fill="#F4CC6A" fill-rule="nonzero"></path>
                <path d="M100.8,67.16 C101.314477,66.9574428 101.891852,66.9903313 102.38,67.25 C102.186355,67.7678326 101.777833,68.1763548 101.26,68.37 C100.746098,68.5703299 100.171039,68.541213 99.68,68.29 C99.8810031,67.7746574 100.286464,67.3655759 100.8,67.16 Z" id="Path" fill="#F4CC6A" fill-rule="nonzero"></path>
                <path d="M102.3,68.84 C102.097076,68.3221745 102.129937,67.7416186 102.39,67.25 C102.890077,67.467576 103.279616,67.8799272 103.468412,68.3915638 C103.657208,68.9032004 103.628884,69.4697448 103.39,69.96 C102.889801,69.7499527 102.496392,69.345716 102.3,68.84 Z" id="Path" fill="#F4CC6A" fill-rule="nonzero"></path>
                <path d="M126.31,82.09 C126.415245,82.6355589 126.750505,83.1092951 127.23,83.39 C127.549512,82.9437082 127.671566,82.3857178 127.567562,81.8467863 C127.463557,81.3078548 127.142636,80.8353511 126.68,80.54 C126.337957,80.978674 126.202977,81.5441295 126.31,82.09 L126.31,82.09 Z" id="Path" fill="#F4CC6A" fill-rule="nonzero"></path>
                <path d="M128.53,82.48 C127.989722,82.5910916 127.519309,82.9203805 127.23,83.39 C127.668674,83.7320434 128.23413,83.8670231 128.78,83.76 C129.322012,83.6465304 129.792719,83.3134149 130.08,82.84 C129.635365,82.5107808 129.07422,82.3804504 128.53,82.48 L128.53,82.48 Z" id="Path" fill="#F4CC6A" fill-rule="nonzero"></path>
                <path d="M102.24,64.72 C102.78422,64.6204504 103.345365,64.7507808 103.79,65.08 C103.494649,65.5426357 103.022145,65.8635575 102.483214,65.9675618 C101.944282,66.0715661 101.386292,65.9495116 100.94,65.63 C101.220859,65.1524929 101.695203,64.8204521 102.24,64.72 L102.24,64.72 Z" id="Path" fill="#F4CC6A" fill-rule="nonzero"></path>
                <path d="M103.43,66.63 C103.33045,66.0857799 103.460781,65.5246351 103.79,65.08 C104.252636,65.3753511 104.573557,65.8478548 104.677562,66.3867863 C104.781566,66.9257178 104.659512,67.4837082 104.34,67.93 C103.862493,67.6491412 103.530452,67.1747972 103.43,66.63 Z" id="Path" fill="#F4CC6A" fill-rule="nonzero"></path>
                <path d="M124.79,83.84 C124.797535,84.3958025 125.045575,84.9210623 125.47,85.28 C125.867462,84.9024121 126.092502,84.3782229 126.092502,83.83 C126.092502,83.2817771 125.867462,82.7575879 125.47,82.38 C125.048735,82.7498594 124.802035,83.2795404 124.79,83.84 Z" id="Path" fill="#F4CC6A" fill-rule="nonzero"></path>
                <path d="M126.91,84.61 C126.354197,84.6175352 125.828938,84.8655746 125.47,85.29 C125.854399,85.6810311 126.382485,85.8970892 126.930735,85.8876366 C127.478985,85.878184 127.99931,85.6440498 128.37,85.24 C127.995706,84.8310359 127.464328,84.601743 126.91,84.61 L126.91,84.61 Z" id="Path" fill="#F4CC6A" fill-rule="nonzero"></path>
                <path d="M104.09,62.5599979 C104.642821,62.5591951 105.171318,62.7872453 105.55,63.19 C105.183053,63.6025183 104.661902,63.8449982 104.11,63.86 C103.556971,63.8721097 103.025329,63.646344 102.65,63.24 C103.008938,62.8155746 103.534197,62.5675352 104.09,62.5599979 Z" id="Path" fill="#F4CC6A" fill-rule="nonzero"></path>
                <path d="M104.919998,64.65 C104.919195,64.0971793 105.147245,63.568682 105.55,63.19 C105.972863,63.5491576 106.21762,64.0752009 106.22,64.63 C106.23211,65.1830288 106.006344,65.7146707 105.6,66.09 C105.175575,65.7310623 104.927535,65.2058025 104.919998,64.65 L104.919998,64.65 Z" id="Path" fill="#F4CC6A" fill-rule="nonzero"></path>
                <path d="M123,85.3 C122.917415,85.8479663 123.065886,86.4056354 123.41,86.84 C123.864338,86.5302196 124.171085,86.0470376 124.258111,85.5040701 C124.345137,84.9611026 124.204765,84.4062568 123.87,83.97 C123.403381,84.2687561 123.08677,84.7527714 123,85.3 L123,85.3 Z" id="Path" fill="#F4CC6A" fill-rule="nonzero"></path>
                <path d="M124.94,86.43 C124.394762,86.3401239 123.837236,86.4895264 123.41,86.84 C123.707836,87.3062997 124.190606,87.6232386 124.736886,87.7111018 C125.283166,87.798965 125.840969,87.649391 126.27,87.3 C125.971244,86.8333813 125.487229,86.5167699 124.94,86.43 L124.94,86.43 Z" id="Path" fill="#F4CC6A" fill-rule="nonzero"></path>
                <path d="M106.28,60.76 C106.827229,60.8467699 107.311244,61.1633813 107.61,61.63 C107.184399,61.9840275 106.6267,62.1371214 106.08,62.05 C105.535529,61.9561548 105.054134,61.6412574 104.75,61.18 C105.175601,60.8259725 105.7333,60.6728786 106.28,60.76 Z" id="Path" fill="#F4CC6A" fill-rule="nonzero"></path>
                <path d="M106.74,63 C106.836248,62.453833 107.154955,61.9721506 107.62,61.67 C107.969391,62.0990309 108.118965,62.6568344 108.031102,63.2031143 C107.943239,63.7493941 107.6263,64.2321641 107.16,64.53 C106.805973,64.1043994 106.652879,63.5467003 106.74,63 Z" id="Path" fill="#F4CC6A" fill-rule="nonzero"></path>
                <path d="M121,86.43 C120.808852,86.9437859 120.84521,87.5146178 121.1,88 C121.607984,87.7833499 122.000282,87.3614644 122.179489,86.8390948 C122.358696,86.3167253 122.308004,85.7428652 122.04,85.26 C121.542096,85.4835025 121.163586,85.9093258 121,86.43 L121,86.43 Z" id="Path" fill="#F4CC6A" fill-rule="nonzero"></path>
                <path d="M122.68,87.88 C122.157606,87.6980867 121.582268,87.7490661 121.1,88.02 C121.31665,88.5279841 121.738536,88.9202821 122.260905,89.0994892 C122.783275,89.2786963 123.357135,89.2280044 123.84,88.96 C123.627996,88.4489894 123.204832,88.0550097 122.68,87.88 L122.68,87.88 Z" id="Path" fill="#F4CC6A" fill-rule="nonzero"></path>
                <path d="M108.76,59.37 C109.280824,59.5571857 109.700801,59.9518187 109.92,60.46 C109.430012,60.7281682 108.848213,60.7721258 108.323495,60.5806229 C107.798778,60.3891201 107.382064,59.9807418 107.18,59.46 C107.669588,59.2055238 108.244682,59.1727652 108.76,59.37 L108.76,59.37 Z" id="Path" fill="#F4CC6A" fill-rule="nonzero"></path>
                <path d="M108.83,61.62 C109.017186,61.0991756 109.411819,60.6791992 109.92,60.46 C110.185299,60.9476051 110.23601,61.5235375 110.06,62.05 C109.887002,62.5670567 109.501278,62.9855317 109,63.2 C108.727552,62.7194152 108.666021,62.1475422 108.83,61.62 L108.83,61.62 Z" id="Path" fill="#F4CC6A" fill-rule="nonzero"></path>
                <path d="M118.76,87.18 C118.48218,87.6637481 118.430988,88.2451472 118.62,88.77 C119.16518,88.6302093 119.626228,88.2671795 119.89,87.77 C120.155299,87.2823949 120.20601,86.7064625 120.03,86.18 C119.48482,86.3197907 119.023772,86.6828205 118.76,87.18 L118.76,87.18 Z" id="Path" fill="#F4CC6A" fill-rule="nonzero"></path>
                <path d="M120.2,88.91 C119.715142,88.6475524 119.143451,88.5968962 118.62,88.77 C118.745609,89.3098775 119.08964,89.7734137 119.57,90.05 C120.053355,90.3188944 120.629194,90.3662735 121.15,90.18 C121.034864,89.6378511 120.687562,89.1735628 120.2,88.91 L120.2,88.91 Z" id="Path" fill="#F4CC6A" fill-rule="nonzero"></path>
                <path d="M111.45,58.43 C111.947179,58.6937718 112.310209,59.1548197 112.45,59.7 C111.92937,59.8876061 111.352964,59.8401803 110.87,59.57 C110.370613,59.3039956 110.007266,58.8389115 109.87,58.29 C110.393451,58.1168962 110.965142,58.1675524 111.45,58.43 L111.45,58.43 Z" id="Path" fill="#F4CC6A" fill-rule="nonzero"></path>
                <path d="M111.13,60.66 C111.404319,60.181841 111.863833,59.8381094 112.4,59.71 C112.583233,60.2322292 112.532204,60.8081259 112.26,61.29 C111.996228,61.7871795 111.53518,62.1502093 110.99,62.29 C110.802146,61.7515553 110.853081,61.1585255 111.13,60.66 L111.13,60.66 Z" id="Path" fill="#F4CC6A" fill-rule="nonzero"></path>
                <path d="M116.45,87.55 C116.108593,87.9818403 115.960278,88.5353083 116.04,89.08 C116.593266,89.0579847 117.110428,88.7994036 117.46,88.37 C117.814523,87.9409255 117.964245,87.3785517 117.87,86.83 C117.317421,86.8631397 116.803293,87.1238245 116.45,87.55 Z" id="Path" fill="#F4CC6A" fill-rule="nonzero"></path>
                <path d="M117.58,89.5 C117.150925,89.1454774 116.588552,88.9957546 116.04,89.09 C116.08189,89.6386488 116.34797,90.1458032 116.775602,90.4920712 C117.203233,90.8383392 117.754636,90.9931288 118.3,90.92 C118.274227,90.365452 118.012118,89.8485142 117.58,89.5 L117.58,89.5 Z" id="Path" fill="#F4CC6A" fill-rule="nonzero"></path>
                <path d="M114.26,58 C114.693632,58.3461666 114.953246,58.8653944 114.97,59.42 C114.423529,59.5057783 113.866342,59.3554282 113.4372,59.0063931 C113.008059,58.6573579 112.747349,58.1424853 112.72,57.59 C113.268552,57.4957546 113.830925,57.6454774 114.26,58 L114.26,58 Z" id="Path" fill="#F4CC6A" fill-rule="nonzero"></path>
                <path d="M113.56,60.11 C113.906231,59.6804154 114.418999,59.4185765 114.97,59.39 C115.065726,59.9364078 114.920446,60.4975139 114.571576,60.9288085 C114.222707,61.360103 113.704348,61.6194296 113.15,61.64 C113.056054,61.0945689 113.205905,60.5353677 113.56,60.11 L113.56,60.11 Z" id="Path" fill="#F4CC6A" fill-rule="nonzero"></path>
                <path d="M114.12,87.51 C113.701414,87.8724006 113.457616,88.3963841 113.45,88.95 C113.999417,89.0245545 114.554116,88.856685 114.97,88.49 C115.388586,88.1275994 115.632384,87.6036159 115.64,87.05 C115.090799,86.9781197 114.537187,87.1456604 114.12,87.51 L114.12,87.51 Z" id="Path" fill="#F4CC6A" fill-rule="nonzero"></path>
                <path d="M114.89,89.62 C114.523053,89.2074817 114.001902,88.9650018 113.45,88.95 C113.37857,89.4993501 113.545398,90.053032 113.908431,90.4714754 C114.271464,90.8899187 114.796067,91.1332023 115.35,91.14 C115.42188,90.5907994 115.25434,90.0371867 114.89,89.62 L114.89,89.62 Z" id="Path" fill="#F4CC6A" fill-rule="nonzero"></path>
                <path d="M117.11,58 C117.47434,58.4171867 117.64188,58.9707994 117.57,59.52 C117.016067,59.5132023 116.491464,59.2699187 116.128431,58.8514754 C115.765398,58.433032 115.59857,57.8793501 115.67,57.33 C116.223616,57.3376159 116.747599,57.5814138 117.11,58 L117.11,58 Z" id="Path" fill="#F4CC6A" fill-rule="nonzero"></path>
                <path d="M116.05,60 C116.465884,59.633315 117.020583,59.4654455 117.57,59.54 C117.560513,60.0989132 117.317552,60.6283497 116.9,61 C116.482813,61.3643396 115.929201,61.5318803 115.38,61.46 C115.372277,60.8973121 115.618364,60.3610642 116.05,60 L116.05,60 Z" id="Path" fill="#F4CC6A" fill-rule="nonzero"></path>
                <path d="M111.83,87.06 C111.351973,87.3450325 111.020262,87.8225503 110.92,88.37 C111.448856,88.5335134 112.022286,88.4645508 112.497293,88.1803092 C112.972301,87.8960677 113.304118,87.4233366 113.41,86.88 C112.881092,86.7190425 112.309151,86.7842004 111.83,87.06 L111.83,87.06 Z" id="Path" fill="#F4CC6A" fill-rule="nonzero"></path>
                <path d="M112.22,89.28 C111.930691,88.8103805 111.460278,88.4810916 110.92,88.37 C110.749699,88.8989571 110.815659,89.4756516 111.100999,89.9524945 C111.386339,90.4293374 111.863366,90.7600516 112.41,90.86 C112.576851,90.3305184 112.507623,89.7548296 112.22,89.28 L112.22,89.28 Z" id="Path" fill="#F4CC6A" fill-rule="nonzero"></path>
                <path d="M119.91,58.52 C120.197623,58.9948296 120.266851,59.5705184 120.1,60.1 C119.556663,59.9941182 119.083932,59.6623012 118.799691,59.1872935 C118.515449,58.7122858 118.446487,58.1388563 118.61,57.61 C119.150278,57.7210916 119.620691,58.0503805 119.91,58.52 Z" id="Path" fill="#F4CC6A" fill-rule="nonzero"></path>
                <path d="M118.52,60.3 C118.99483,60.0123772 119.570518,59.9431488 120.1,60.11 C119.988908,60.6502784 119.659619,61.1206912 119.19,61.41 C118.715608,61.6988891 118.139357,61.7681851 117.61,61.6 C117.711694,61.0557238 118.043408,60.5818477 118.52,60.3 L118.52,60.3 Z" id="Path" fill="#F4CC6A" fill-rule="nonzero"></path>
                <path d="M109.65,86.23 C109.132676,86.4332801 108.72328,86.8426759 108.52,87.36 C109.014688,87.6088173 109.590394,87.6414045 110.11,87.45 C110.623536,87.2444241 111.028997,86.8353426 111.23,86.32 C110.738108,86.0740429 110.16664,86.041491 109.65,86.23 Z" id="Path" fill="#F4CC6A" fill-rule="nonzero"></path>
                <path d="M109.65,88.48 C109.444424,87.9664644 109.035343,87.5610031 108.52,87.36 C108.271183,87.8546877 108.238595,88.4303941 108.43,88.95 C108.635576,89.4635356 109.044657,89.8689969 109.56,90.07 C109.808817,89.5753123 109.841405,88.9996059 109.65,88.48 Z" id="Path" fill="#F4CC6A" fill-rule="nonzero"></path>
                <path d="M122.59,59.53 C122.778509,60.0466403 122.745957,60.6181078 122.5,61.11 C121.986623,60.9112826 121.577852,60.509747 121.37,60 C121.178595,59.4803941 121.211183,58.9046877 121.46,58.41 C121.975343,58.6110031 122.384424,59.0164644 122.59,59.53 Z" id="Path" fill="#F4CC6A" fill-rule="nonzero"></path>
                <path d="M120.91,61 C121.424477,60.7974428 122.001852,60.8303313 122.49,61.09 C122.286498,61.5995987 121.876705,61.9991809 121.362134,62.1897625 C120.847564,62.3803442 120.276353,62.344097 119.79,62.09 C119.990798,61.5835648 120.398301,61.186977 120.91,61 Z" id="Path" fill="#F4CC6A" fill-rule="nonzero"></path>
                <rect id="Rectangle" fill="#C68F30" fill-rule="nonzero" x="40.88" y="23.78" width="77.57" height="9.37"></rect>
                <rect id="Rectangle" fill="#C68F30" fill-rule="nonzero" x="57.84" y="37.71" width="43.66" height="5.27"></rect>
                <rect id="Rectangle" fill="#C68F30" fill-rule="nonzero" x="28.8" y="61.68" width="53.73" height="5.27"></rect>
                <rect id="Rectangle" fill="#C68F30" fill-rule="nonzero" x="28.8" y="88.62" width="53.73" height="5.27"></rect>
                <rect id="Rectangle" fill="#C68F30" fill-rule="nonzero" x="28.8" y="75.15" width="53.73" height="5.27"></rect>
                <text id="3" font-family="TimesNewRomanPS-BoldMT, Times New Roman" font-size="25" font-weight="bold" fill="#F4CC6A">
                    <tspan x="110.25" y="83">3</tspan>
                </text>
            </g>
        </g>
    </g>
</svg>