<?xml version="1.0" encoding="UTF-8"?>
<svg width="179px" height="179px" viewBox="0 0 179 179" version="1.1" xmlns="http://www.w3.org/2000/svg" xmlns:xlink="http://www.w3.org/1999/xlink">
    <!-- Generator: Sketch 55.2 (78181) - https://sketchapp.com -->
    <title>rankAsset 2</title>
    <desc>Created with Sketch.</desc>
    <g id="Page-1" stroke="none" stroke-width="1" fill="none" fill-rule="evenodd">
        <g id="Artboard" transform="translate(-255.000000, -341.000000)">
            <g id="rankAsset-2" transform="translate(254.000000, 341.000000)">
                <path d="M61.92,19.63 C59.3508943,18.4323176 57.4153268,16.1947724 56.6,13.48 C59.2033249,12.3593038 62.1612549,12.4032494 64.7301381,13.6007883 C67.2990214,14.7983271 69.2345086,17.0355508 70.05,19.75 C67.4468267,20.8709037 64.4889571,20.8272451 61.92,19.63 L61.92,19.63 Z" id="Path" fill="#E1AD3D" fill-rule="nonzero"></path>
                <path d="M62.74,8.13 C61.5454587,10.7014767 59.3066665,12.6381229 56.59,13.45 C55.4693038,10.8466751 55.5132494,7.88874515 56.7107883,5.31986189 C57.9083271,2.75097863 60.1455508,0.815491381 62.86,0 C63.9860551,2.6021485 63.942364,5.56221931 62.74,8.13 Z" id="Path" fill="#E1AD3D" fill-rule="nonzero"></path>
                <path d="M51.33,25 C48.5839002,24.2730628 46.280031,22.405946 45,19.87 C47.3689583,18.3158924 50.2885281,17.8465543 53.0252081,18.5799005 C55.7618881,19.3132467 58.0555707,21.1795764 59.33,23.71 C56.9676127,25.2567891 54.0588467,25.7258276 51.33,25 Z" id="Path" fill="#E1AD3D" fill-rule="nonzero"></path>
                <path d="M50.14,13.54 C49.4090334,16.2797467 47.5372523,18.5739531 45,19.84 C43.4465987,17.4697671 42.9787544,14.5491828 43.714058,11.8123254 C44.4493616,9.07546806 46.3178917,6.78259079 48.85,5.51 C50.4103603,7.87832156 50.8800617,10.8021212 50.14,13.54 Z" id="Path" fill="#E1AD3D" fill-rule="nonzero"></path>
                <path d="M41.83,32.16 C38.9992472,31.9064559 36.4135945,30.4497502 34.73,28.16 C36.7912638,26.2144114 39.5857134,25.2424231 42.4094315,25.4888776 C45.2331496,25.735332 47.8169582,27.1767352 49.51,29.45 C47.450457,31.4020802 44.6585498,32.3872454 41.83,32.16 Z" id="Path" fill="#E1AD3D" fill-rule="nonzero"></path>
                <path d="M38.67,21.07 C38.4164559,23.9007528 36.9597502,26.4864055 34.67,28.17 C32.7287666,26.1033633 31.763571,23.3054555 32.0176899,20.481487 C32.2718089,17.6575185 33.7210015,15.076873 36,13.39 C37.9509664,15.4481692 38.9234581,18.2454489 38.67,21.07 L38.67,21.07 Z" id="Path" fill="#E1AD3D" fill-rule="nonzero"></path>
                <path d="M33.7,40.86 C30.8692045,41.1154027 28.065011,40.1430395 26,38.19 C27.6929902,35.9101803 30.2810269,34.4642521 33.1099831,34.2176741 C35.9389393,33.9710962 38.7381085,34.9474639 40.8,36.9 C39.1085995,39.1746751 36.5240981,40.6161717 33.7,40.86 Z" id="Path" fill="#E1AD3D" fill-rule="nonzero"></path>
                <path d="M28.67,30.49 C28.9078951,33.312613 27.9375574,36.1036966 26,38.17 C23.7267352,36.4769582 22.285332,33.8931496 22.0388776,31.0694315 C21.7924231,28.2457134 22.7644114,25.4512638 24.71,23.39 C26.9827012,25.0831312 28.4236619,27.6666719 28.67,30.49 L28.67,30.49 Z" id="Path" fill="#E1AD3D" fill-rule="nonzero"></path>
                <path d="M27.2,50.86 C24.4699374,51.5867999 21.5594575,51.1138469 19.2,49.56 C20.4744293,47.0295764 22.7681119,45.1632467 25.5047919,44.4299005 C28.2414719,43.6965543 31.1610417,44.1658924 33.53,45.72 C32.2532114,48.260585 29.9485841,50.1319569 27.2,50.86 Z" id="Path" fill="#E1AD3D" fill-rule="nonzero"></path>
                <path d="M20.44,41.52 C21.1710316,44.2485837 20.7016467,47.1594982 19.15,49.52 C16.6195764,48.2455707 14.7532467,45.9518881 14.0199005,43.2152081 C13.2865543,40.4785281 13.7558924,37.5589583 15.31,35.19 C17.8500891,36.4648868 19.7189537,38.7709127 20.44,41.52 Z" id="Path" fill="#E1AD3D" fill-rule="nonzero"></path>
                <path d="M22.52,61.84 C19.9510429,63.0372451 16.9931733,63.0809037 14.39,61.96 C15.2054914,59.2455508 17.1409786,57.0083271 19.7098619,55.8107883 C22.2787451,54.6132494 25.2366751,54.5693038 27.84,55.69 C27.0281229,58.4066665 25.0914767,60.6454587 22.52,61.84 L22.52,61.84 Z" id="Path" fill="#E1AD3D" fill-rule="nonzero"></path>
                <path d="M14.24,53.82 C15.4574054,56.4018584 15.5011465,59.3835419 14.36,62 C11.6325114,61.1865771 9.38456024,59.2429781 8.18565642,56.6616062 C6.9867526,54.0802344 6.95192607,51.1087619 8.09,48.5 C10.8079355,49.3095629 13.047566,51.2469344 14.24,53.82 Z" id="Path" fill="#E1AD3D" fill-rule="nonzero"></path>
                <path d="M19.81,73.47 C17.4848057,75.1005073 14.5727633,75.6574354 11.81,75 C12.1404663,72.1779127 13.6628476,69.6321581 15.9926521,68.0056908 C18.3224566,66.3792235 21.236932,65.8275498 24,66.49 C23.6663511,69.3089969 22.1410217,71.8499991 19.81,73.47 L19.81,73.47 Z" id="Path" fill="#E1AD3D" fill-rule="nonzero"></path>
                <path d="M10.26,67 C11.8941537,69.32365 12.4513943,72.2373264 11.79,75 C8.97169037,74.6744359 6.42764058,73.1577646 4.80095497,70.8333818 C3.17426936,68.5089991 2.62063361,65.5993653 3.28,62.84 C6.09517895,63.1627059 8.63671556,64.6774326 10.26,67 L10.26,67 Z" id="Path" fill="#E1AD3D" fill-rule="nonzero"></path>
                <path d="M19.14,85.4 C17.1362819,87.4064563 14.3710123,88.461625 11.54,88.3 C11.3764703,85.4753151 12.4244658,82.7148022 14.4213422,80.7102895 C16.4182187,78.7057768 19.1747115,77.6472527 22,77.8 C22.1759909,80.6255534 21.1351312,83.3914741 19.14,85.4 Z" id="Path" fill="#E1AD3D" fill-rule="nonzero"></path>
                <path d="M8.61,80.7 C10.6186565,82.7022906 11.6742168,85.4685867 11.51,88.3 C8.67628303,88.4675729 5.90612035,87.4156059 3.89792425,85.4093206 C1.88972814,83.4030352 0.835124658,80.6338752 1,77.8 C3.83522259,77.6302598 6.60678421,78.6864396 8.61,80.7 L8.61,80.7 Z" id="Path" fill="#E1AD3D" fill-rule="nonzero"></path>
                <path d="M20.54,97.18 C18.9142381,99.5112446 16.3641194,101.030387 13.54,101.35 C12.8906037,98.5895739 13.4511451,95.6832073 15.0805636,93.3622887 C16.7099822,91.0413702 19.2531218,89.5269017 22.07,89.2 C22.7253719,91.9563859 22.1683808,94.8614764 20.54,97.18 L20.54,97.18 Z" id="Path" fill="#E1AD3D" fill-rule="nonzero"></path>
                <path d="M9.36,94.38 C11.6912446,96.0057619 13.2103867,98.5558806 13.53,101.38 C10.7695739,102.029396 7.86320726,101.468855 5.54228871,99.8394364 C3.22137017,98.2100178 1.70690167,95.6668782 1.38,92.85 C4.13626704,92.1893356 7.0435444,92.7467459 9.36,94.38 L9.36,94.38 Z" id="Path" fill="#E1AD3D" fill-rule="nonzero"></path>
                <path d="M24,108.54 C22.7961064,111.104407 20.5610173,113.03785 17.85,113.86 C16.7293038,111.256675 16.7732494,108.298745 17.9707883,105.729862 C19.1683271,103.160979 21.4055508,101.225491 24.12,100.41 C25.2409037,103.013173 25.1972451,105.971043 24,108.54 L24,108.54 Z" id="Path" fill="#E1AD3D" fill-rule="nonzero"></path>
                <path d="M12.49,107.72 C15.0614767,108.914541 16.9981229,111.153333 17.81,113.87 C15.2066751,114.990696 12.2487451,114.946751 9.67986189,113.749212 C7.11097863,112.551673 5.17549138,110.314449 4.36,107.6 C6.9621485,106.473945 9.92221931,106.517636 12.49,107.72 Z" id="Path" fill="#E1AD3D" fill-rule="nonzero"></path>
                <path d="M29.37,119.13 C28.6331824,121.866752 26.7631438,124.158822 24.23,125.43 C22.6758924,123.061042 22.2065543,120.141472 22.9399005,117.404792 C23.6732467,114.668112 25.5395764,112.374429 28.07,111.1 C29.6288795,113.468706 30.1018867,116.390435 29.37,119.13 Z" id="Path" fill="#E1AD3D" fill-rule="nonzero"></path>
                <path d="M17.9,120.32 C20.6378518,121.048692 22.9317273,122.916562 24.2,125.45 C21.8310417,127.004108 18.9114719,127.473446 16.1747919,126.740099 C13.4381119,126.006753 11.1444293,124.140424 9.87,121.61 C12.2383216,120.04964 15.1621212,119.579938 17.9,120.32 L17.9,120.32 Z" id="Path" fill="#E1AD3D" fill-rule="nonzero"></path>
                <path d="M36.52,128.63 C36.2639349,131.459969 34.8077736,134.044655 32.52,135.73 C30.5960728,133.665018 29.641754,130.878903 29.8955567,128.06799 C30.1493594,125.257077 31.5873024,122.686964 33.85,121 C35.7741224,123.054243 36.7434431,125.82425 36.52,128.63 Z" id="Path" fill="#E1AD3D" fill-rule="nonzero"></path>
                <path d="M25.43,131.79 C28.2607528,132.043544 30.8464055,133.50025 32.53,135.79 C30.4687362,137.735589 27.6742866,138.707577 24.8505685,138.461122 C22.0268504,138.214668 19.4430418,136.773265 17.75,134.5 C19.8013105,132.534501 22.5994379,131.547141 25.43,131.79 Z" id="Path" fill="#E1AD3D" fill-rule="nonzero"></path>
                <path d="M45.22,136.76 C45.4695254,139.584065 44.4975805,142.379772 42.55,144.44 C40.2767352,142.746958 38.835332,140.16315 38.5888776,137.339432 C38.3424231,134.515713 39.3144114,131.721264 41.26,129.66 C43.5346751,131.3514 44.9761717,133.935902 45.22,136.76 Z" id="Path" fill="#E1AD3D" fill-rule="nonzero"></path>
                <path d="M34.85,141.79 C37.672613,141.552105 40.4636966,142.522443 42.53,144.46 C40.8369582,146.733265 38.2531496,148.174668 35.4294315,148.421122 C32.6057134,148.667577 29.8112638,147.695589 27.75,145.75 C29.4431312,143.477299 32.0266719,142.036338 34.85,141.79 Z" id="Path" fill="#E1AD3D" fill-rule="nonzero"></path>
                <path d="M55.22,143.26 C55.9467999,145.990063 55.4738469,148.900543 53.92,151.26 C51.4102519,149.983792 49.5594774,147.703083 48.8273622,144.984343 C48.095247,142.265603 48.5504826,139.36392 50.08,137 C52.5995549,138.268332 54.466256,140.541785 55.22,143.26 L55.22,143.26 Z" id="Path" fill="#E1AD3D" fill-rule="nonzero"></path>
                <path d="M45.88,150 C48.6085837,149.268968 51.5194982,149.738353 53.88,151.29 C52.6055707,153.820424 50.3118881,155.686753 47.5752081,156.420099 C44.8385281,157.153446 41.9189583,156.684108 39.55,155.13 C40.8248868,152.589911 43.1309127,150.721046 45.88,150 Z" id="Path" fill="#E1AD3D" fill-rule="nonzero"></path>
                <path d="M66.2,147.94 C67.3972451,150.508957 67.4409037,153.466827 66.32,156.07 C63.6055508,155.254509 61.3683271,153.319021 60.1707883,150.750138 C58.9732494,148.181255 58.9293038,145.223325 60.05,142.62 C62.7666665,143.431877 65.0054587,145.368523 66.2,147.94 Z" id="Path" fill="#E1AD3D" fill-rule="nonzero"></path>
                <path d="M58.18,156.22 C60.7477807,155.017636 63.7078515,154.973945 66.31,156.1 C65.4945086,158.814449 63.5590214,161.051673 60.9901381,162.249212 C58.4212549,163.446751 55.4633249,163.490696 52.86,162.37 C53.6695629,159.652065 55.6069344,157.412434 58.18,156.22 Z" id="Path" fill="#E1AD3D" fill-rule="nonzero"></path>
                <path d="M75.91,9.85 C73.2471023,10.8251482 70.2937228,10.6102907 67.8,9.26 C68.8473587,6.62694925 70.9697463,4.56679663 73.6327933,3.59824226 C76.2958402,2.62968788 79.2458222,2.8450117 81.74,4.19 C80.6961239,6.82399412 78.5737237,8.88450616 75.91,9.85 L75.91,9.85 Z" id="Path" fill="#E1AD3D" fill-rule="nonzero"></path>
                <path d="M101.56,178.68 C91.6594479,168.655977 79.4943874,161.158705 66.09,156.82 C65.19,156.52 64.36,156.24 63.6,155.97 C31.91,144.88 10.6,115.55 10.6,82.97 C10.6,46.33 37.52,14.37 74.6,6.97 L74.84,8.15 C38.35,15.47 11.83,46.93 11.83,83 C11.83,115 32.83,143.91 64,154.83 C64.75,155.1 65.58,155.38 66.48,155.68 C75.89,158.87 92.66,164.22 106.41,177.82 L101.56,178.68 Z" id="Path" fill="#E1AD3D" fill-rule="nonzero"></path>
                <path d="M119.07,19.63 C121.639253,18.4352936 123.572694,16.1959974 124.38,13.48 C121.778355,12.3560416 118.820208,12.398501 116.251893,13.5966656 C113.683578,14.7948303 111.750365,17.0342778 110.94,19.75 C113.543173,20.8709037 116.501043,20.8272451 119.07,19.63 L119.07,19.63 Z" id="Path" fill="#E1AD3D" fill-rule="nonzero"></path>
                <path d="M118.24,8.13 C119.443894,10.6944073 121.678983,12.6278503 124.39,13.45 C125.510696,10.8466751 125.466751,7.88874515 124.269212,5.31986189 C123.071673,2.75097863 120.834449,0.815491381 118.12,1.77635684e-15 C116.999096,2.60317328 117.042755,5.56104294 118.24,8.13 L118.24,8.13 Z" id="Path" fill="#E1AD3D" fill-rule="nonzero"></path>
                <path d="M129.66,25 C132.396752,24.2631824 134.688822,22.3931438 135.96,19.86 C133.591042,18.3058924 130.671472,17.8365543 127.934792,18.5699005 C125.198112,19.3032467 122.904429,21.1695764 121.63,23.7 C123.998706,25.2588795 126.920435,25.7318867 129.66,25 Z" id="Path" fill="#E1AD3D" fill-rule="nonzero"></path>
                <path d="M130.84,13.54 C131.573316,16.2785452 133.444396,18.571893 135.98,19.84 C137.534108,17.4710417 138.003446,14.5514719 137.270099,11.8147919 C136.536753,9.07811193 134.670424,6.78442934 132.14,5.51 C130.581121,7.87870592 130.108113,10.8004353 130.84,13.54 L130.84,13.54 Z" id="Path" fill="#E1AD3D" fill-rule="nonzero"></path>
                <path d="M139.16,32.16 C141.989969,31.9039349 144.574655,30.4477736 146.26,28.16 C144.198736,26.2144114 141.404287,25.2424231 138.580568,25.4888776 C135.75685,25.735332 133.173042,27.1767352 131.48,29.45 C133.539543,31.4020802 136.33145,32.3872454 139.16,32.16 Z" id="Path" fill="#E1AD3D" fill-rule="nonzero"></path>
                <path d="M142.32,21.07 C142.573544,23.9007528 144.03025,26.4864055 146.32,28.17 C148.26232,26.1047059 149.229212,23.3076634 148.97701,20.4837583 C148.724807,17.6598531 147.277563,15.0784169 145,13.39 C143.045402,15.4464579 142.069195,18.2439483 142.32,21.07 L142.32,21.07 Z" id="Path" fill="#E1AD3D" fill-rule="nonzero"></path>
                <path d="M147.28,40.86 C150.118002,41.1252751 152.932291,40.1519392 155,38.19 C153.306958,35.9167352 150.72315,34.475332 147.899432,34.2288776 C145.075713,33.9824231 142.281264,34.9544114 140.22,36.9 C141.904079,39.162822 144.47104,40.6026475 147.28,40.86 Z" id="Path" fill="#E1AD3D" fill-rule="nonzero"></path>
                <path d="M152.32,30.49 C152.069195,33.3160517 153.045402,36.1135421 155,38.17 C157.273265,36.4769582 158.714668,33.8931496 158.961122,31.0694315 C159.207577,28.2457134 158.235589,25.4512638 156.29,23.39 C154.013532,25.0811891 152.568773,27.665015 152.32,30.49 L152.32,30.49 Z" id="Path" fill="#E1AD3D" fill-rule="nonzero"></path>
                <path d="M153.78,50.86 C156.510255,51.5828995 159.419125,51.110208 161.78,49.56 C160.505571,47.0295764 158.211888,45.1632467 155.475208,44.4299005 C152.738528,43.6965543 149.818958,44.1658924 147.45,45.72 C148.726789,48.260585 151.031416,50.1319569 153.78,50.86 Z" id="Path" fill="#E1AD3D" fill-rule="nonzero"></path>
                <path d="M160.55,41.52 C159.818968,44.2485837 160.288353,47.1594982 161.84,49.52 C164.370424,48.2455707 166.236753,45.9518881 166.970099,43.2152081 C167.703446,40.4785281 167.234108,37.5589583 165.68,35.19 C163.139911,36.4648868 161.271046,38.7709127 160.55,41.52 Z" id="Path" fill="#E1AD3D" fill-rule="nonzero"></path>
                <path d="M158.46,61.84 C161.028957,63.0372451 163.986827,63.0809037 166.59,61.96 C165.779635,59.2442778 163.846422,57.0048303 161.278107,55.8066656 C158.709792,54.608501 155.751645,54.5660416 153.15,55.69 C153.957306,58.4059974 155.890747,60.6452936 158.46,61.84 Z" id="Path" fill="#E1AD3D" fill-rule="nonzero"></path>
                <path d="M166.74,53.82 C165.542755,56.3889571 165.499096,59.3468267 166.62,61.95 C169.334449,61.1345086 171.571673,59.1990214 172.769212,56.6301381 C173.966751,54.0612549 174.010696,51.1033249 172.89,48.5 C170.175228,49.3153268 167.937682,51.2508943 166.74,53.82 L166.74,53.82 Z" id="Path" fill="#E1AD3D" fill-rule="nonzero"></path>
                <path d="M161.18,73.47 C163.504681,75.10172 166.417266,75.6587519 169.18,75 C168.849119,72.1801279 167.328174,69.6363427 165.00076,68.0102104 C162.673346,66.3840782 159.76164,65.8308299 157,66.49 C157.327502,69.3085756 158.849867,71.8507077 161.18,73.47 L161.18,73.47 Z" id="Path" fill="#E1AD3D" fill-rule="nonzero"></path>
                <path d="M170.73,67 C169.095846,69.32365 168.538606,72.2373264 169.2,75 C172.016096,74.6740197 174.558176,73.158783 176.184526,70.8367912 C177.810875,68.5147995 178.366085,65.6079361 177.71,62.85 C174.896516,63.170305 172.355276,64.6812142 170.73,67 Z" id="Path" fill="#E1AD3D" fill-rule="nonzero"></path>
                <path d="M161.85,85.4 C163.853718,87.4064563 166.618988,88.461625 169.45,88.3 C169.594095,85.4823141 168.541216,82.7348659 166.550974,80.7351018 C164.560733,78.7353377 161.818342,77.6693564 159,77.8 C158.817482,80.624622 159.855201,83.391872 161.85,85.4 L161.85,85.4 Z" id="Path" fill="#E1AD3D" fill-rule="nonzero"></path>
                <path d="M172.37,80.7 C170.363899,82.7033155 169.311867,85.4699034 169.48,88.3 C172.3154,88.4705502 175.088302,87.4199009 177.098766,85.4132589 C179.10923,83.4066169 180.165154,80.635719 180,77.8 C177.158764,77.6296479 174.380815,78.6854867 172.37,80.7 L172.37,80.7 Z" id="Path" fill="#E1AD3D" fill-rule="nonzero"></path>
                <path d="M160.45,97.18 C162.075762,99.5112446 164.625881,101.030387 167.45,101.35 C168.099357,98.5926544 167.541401,95.6892428 165.91627,93.3689911 C164.291139,91.0487393 161.753241,89.5321019 158.94,89.2 C158.274908,91.953441 158.824881,94.8599196 160.45,97.18 L160.45,97.18 Z" id="Path" fill="#E1AD3D" fill-rule="nonzero"></path>
                <path d="M171.63,94.38 C169.298755,96.0057619 167.779613,98.5558806 167.46,101.38 C170.217346,102.029357 173.120757,101.471401 175.441009,99.8462701 C177.761261,98.221139 179.277898,95.6832415 179.61,92.87 C176.856592,92.2035821 173.949565,92.7536588 171.63,94.38 L171.63,94.38 Z" id="Path" fill="#E1AD3D" fill-rule="nonzero"></path>
                <path d="M157,108.54 C158.197682,111.109106 160.435228,113.044673 163.15,113.86 C164.270696,111.256675 164.226751,108.298745 163.029212,105.729862 C161.831673,103.160979 159.594449,101.225491 156.88,100.41 C155.753945,103.012148 155.797636,105.972219 157,108.54 L157,108.54 Z" id="Path" fill="#E1AD3D" fill-rule="nonzero"></path>
                <path d="M168.5,107.72 C165.928523,108.914541 163.991877,111.153333 163.18,113.87 C165.783325,114.990696 168.741255,114.946751 171.310138,113.749212 C173.879021,112.551673 175.814509,110.314449 176.63,107.6 C174.027852,106.473945 171.067781,106.517636 168.5,107.72 L168.5,107.72 Z" id="Path" fill="#E1AD3D" fill-rule="nonzero"></path>
                <path d="M151.62,119.13 C152.353316,121.868545 154.224396,124.161893 156.76,125.43 C158.314108,123.061042 158.783446,120.141472 158.050099,117.404792 C157.316753,114.668112 155.450424,112.374429 152.92,111.1 C151.361121,113.468706 150.888113,116.390435 151.62,119.13 Z" id="Path" fill="#E1AD3D" fill-rule="nonzero"></path>
                <path d="M163.09,120.32 C160.3496,121.0485 158.052537,122.916001 156.78,125.45 C159.148958,127.004108 162.068528,127.473446 164.805208,126.740099 C167.541888,126.006753 169.835571,124.140424 171.11,121.61 C168.745721,120.048855 165.824575,119.578995 163.09,120.32 L163.09,120.32 Z" id="Path" fill="#E1AD3D" fill-rule="nonzero"></path>
                <path d="M144.47,128.63 C144.726065,131.459969 146.182226,134.044655 148.47,135.73 C150.393927,133.665018 151.348246,130.878903 151.094443,128.06799 C150.840641,125.257077 149.402698,122.686964 147.14,121 C145.207102,123.048917 144.236375,125.822942 144.47,128.63 Z" id="Path" fill="#E1AD3D" fill-rule="nonzero"></path>
                <path d="M155.56,131.79 C152.729247,132.043544 150.143594,133.50025 148.46,135.79 C150.521264,137.735589 153.315713,138.707577 156.139432,138.461122 C158.96315,138.214668 161.546958,136.773265 163.24,134.5 C161.188689,132.534501 158.390562,131.547141 155.56,131.79 Z" id="Path" fill="#E1AD3D" fill-rule="nonzero"></path>
                <path d="M135.77,136.76 C135.521718,139.582091 136.489412,142.376034 138.43,144.44 C140.701933,142.746563 142.143124,140.163983 142.391401,137.34126 C142.639679,134.518536 141.671439,131.724031 139.73,129.66 C137.452348,131.348787 136.010041,133.934742 135.77,136.76 Z" id="Path" fill="#E1AD3D" fill-rule="nonzero"></path>
                <path d="M146.14,141.79 C143.317387,141.552105 140.526303,142.522443 138.46,144.46 C140.153042,146.733265 142.73685,148.174668 145.560568,148.421122 C148.384287,148.667577 151.178736,147.695589 153.24,145.75 C151.540882,143.484141 148.960653,142.045027 146.14,141.79 Z" id="Path" fill="#E1AD3D" fill-rule="nonzero"></path>
                <path d="M125.77,143.26 C125.0432,145.990063 125.516153,148.900543 127.07,151.26 C129.579748,149.983792 131.430523,147.703083 132.162638,144.984343 C132.894753,142.265603 132.439517,139.36392 130.91,137 C128.384819,138.26129 126.515742,140.537637 125.77,143.26 Z" id="Path" fill="#E1AD3D" fill-rule="nonzero"></path>
                <path d="M135.11,150 C132.381416,149.268968 129.470502,149.738353 127.11,151.29 C128.384429,153.820424 130.678112,155.686753 133.414792,156.420099 C136.151472,157.153446 139.071042,156.684108 141.44,155.13 C140.165113,152.589911 137.859087,150.721046 135.11,150 Z" id="Path" fill="#E1AD3D" fill-rule="nonzero"></path>
                <path d="M114.79,147.94 C113.587636,150.507781 113.543945,153.467852 114.67,156.07 C117.384449,155.254509 119.621673,153.319021 120.819212,150.750138 C122.016751,148.181255 122.060696,145.223325 120.94,142.62 C118.223333,143.431877 115.984541,145.368523 114.79,147.94 Z" id="Path" fill="#E1AD3D" fill-rule="nonzero"></path>
                <path d="M122.81,156.22 C120.242219,155.017636 117.282148,154.973945 114.68,156.1 C115.495491,158.814449 117.430979,161.051673 119.999862,162.249212 C122.568745,163.446751 125.526675,163.490696 128.13,162.37 C127.318123,159.653333 125.381477,157.414541 122.81,156.22 L122.81,156.22 Z" id="Path" fill="#E1AD3D" fill-rule="nonzero"></path>
                <path d="M105.08,9.85 C107.742898,10.8251482 110.696277,10.6102907 113.19,9.26 C112.140061,6.62911756 110.017539,4.57116108 107.355488,3.60296876 C104.693436,2.63477644 101.744762,2.84833099 99.25,4.19 C100.293876,6.82399412 102.416276,8.88450616 105.08,9.85 L105.08,9.85 Z" id="Path" fill="#E1AD3D" fill-rule="nonzero"></path>
                <path d="M79.42,178.68 L74.58,177.82 C88.33,164.22 105.09,158.87 114.51,155.68 L116.99,154.83 C148.19,143.91 169.16,115 169.16,83 C169.16,46.93 142.64,15.47 106.1,8.18 L106.33,7 C143.43,14.4 170.33,46.36 170.33,83 C170.33,115.55 149.04,144.88 117.33,156 C116.57,156.27 115.74,156.55 114.84,156.85 C101.458117,161.190809 89.3119825,168.676696 79.42,178.68 Z" id="Path" fill="#E1AD3D" fill-rule="nonzero"></path>
                <rect id="Rectangle" fill="#F4CC6A" fill-rule="nonzero" x="59.03" y="116.73" width="66.05" height="8.5"></rect>
                <rect id="Rectangle" fill="#C68F30" fill-rule="nonzero" x="66.09" y="94.39" width="51.94" height="22.32"></rect>
                <path d="M105.7,112.52 L78.42,112.52 C78.420004,111.627137 78.0646326,110.770989 77.4323459,110.140579 C76.8000592,109.510168 75.9428588,109.157343 75.05,109.16 L75.05,102 C76.9111996,102 78.42,100.4912 78.42,98.63 L105.7,98.63 C105.7,100.4912 107.2088,102 109.07,102 L109.07,109.18 C107.218207,109.174456 105.711014,110.668231 105.7,112.52 L105.7,112.52 Z" id="Path" fill="#F4CC6A" fill-rule="nonzero"></path>
                <text id="1" font-family="TimesNewRomanPS-BoldMT, Times New Roman" font-size="82" font-weight="bold" fill="#F4CC6A">
                    <tspan x="71.5" y="95">1</tspan>
                </text>
            </g>
        </g>
    </g>
</svg>